<?xml version="1.0" encoding="UTF-8" standalone="no"?>
<!DOCTYPE svg PUBLIC "-//W3C//DTD SVG 1.1//EN"
 "http://www.w3.org/Graphics/SVG/1.1/DTD/svg11.dtd">
<!-- Generated by graphviz version 2.40.1 (20161225.0304)
 -->
<!-- Title: classes_dynamo0p3 Pages: 1 -->
<svg width="498pt" height="1033pt"
 viewBox="0.00 0.00 497.50 1033.00" xmlns="http://www.w3.org/2000/svg" xmlns:xlink="http://www.w3.org/1999/xlink">
<g id="graph0" class="graph" transform="scale(1 1) rotate(0) translate(4 1029)">
<title>classes_dynamo0p3</title>
<polygon fill="#ffffff" stroke="transparent" points="-4,4 -4,-1029 493.5,-1029 493.5,4 -4,4"/>
<!-- 20 -->
<g id="node1" class="node">
<title>20</title>
<polygon fill="none" stroke="#000000" points="171.5,-122.5 171.5,-267.5 344.5,-267.5 344.5,-122.5 171.5,-122.5"/>
<text text-anchor="middle" x="258" y="-252.3" font-family="Times,serif" font-size="14.00" fill="#000000">LFRicInvoke</text>
<polyline fill="none" stroke="#000000" points="171.5,-244.5 344.5,-244.5 "/>
<polyline fill="none" stroke="#000000" points="171.5,-220.5 344.5,-220.5 "/>
<text text-anchor="start" x="179.5" y="-205.3" font-family="Times,serif" font-size="14.00" fill="#000000">arg_for_funcspace()</text>
<text text-anchor="start" x="179.5" y="-190.3" font-family="Times,serif" font-size="14.00" fill="#000000">field_on_space()</text>
<text text-anchor="start" x="179.5" y="-175.3" font-family="Times,serif" font-size="14.00" fill="#000000">gen_code()</text>
<text text-anchor="start" x="179.5" y="-160.3" font-family="Times,serif" font-size="14.00" fill="#000000">is_coloured()</text>
<text text-anchor="start" x="179.5" y="-145.3" font-family="Times,serif" font-size="14.00" fill="#000000">unique_fss()</text>
<text text-anchor="start" x="179.5" y="-130.3" font-family="Times,serif" font-size="14.00" fill="#000000">unique_proxy_declarations()</text>
</g>
<!-- 35 -->
<g id="node3" class="node">
<title>35</title>
<polygon fill="none" stroke="#000000" points="65.5,-349.5 65.5,-419.5 172.5,-419.5 172.5,-349.5 65.5,-349.5"/>
<text text-anchor="middle" x="119" y="-404.3" font-family="Times,serif" font-size="14.00" fill="#000000">DynamoInvokes</text>
<polyline fill="none" stroke="#000000" points="65.5,-396.5 172.5,-396.5 "/>
<polyline fill="none" stroke="#000000" points="65.5,-372.5 172.5,-372.5 "/>
<text text-anchor="middle" x="119" y="-357.3" font-family="Times,serif" font-size="14.00" fill="#000000"> </text>
</g>
<!-- 20&#45;&gt;35 -->
<g id="edge2" class="edge">
<title>20&#45;&gt;35</title>
<path fill="none" stroke="#000000" d="M204.6565,-267.7237C186.9436,-291.8718 167.7485,-318.0407 152.0275,-339.4732"/>
<polygon fill="#000000" stroke="#000000" points="151.9369,-339.5968 151.6135,-346.8007 144.8394,-349.2729 145.1628,-342.069 151.9369,-339.5968"/>
<text text-anchor="middle" x="211.5" y="-289.8" font-family="Times,serif" font-size="14.00" fill="#00ff00">_0_to_n</text>
</g>
<!-- 45 -->
<g id="node5" class="node">
<title>45</title>
<polygon fill="#faebd7" stroke="#000000" points="190.5,-319.5 190.5,-449.5 351.5,-449.5 351.5,-319.5 190.5,-319.5"/>
<text text-anchor="middle" x="271" y="-434.3" font-family="Times,serif" font-size="14.00" fill="#000000">Invoke</text>
<polyline fill="none" stroke="#000000" points="190.5,-426.5 351.5,-426.5 "/>
<polyline fill="none" stroke="#000000" points="190.5,-402.5 351.5,-402.5 "/>
<text text-anchor="start" x="198.5" y="-387.3" font-family="Times,serif" font-size="14.00" fill="#000000">first_access()</text>
<text text-anchor="start" x="198.5" y="-372.3" font-family="Times,serif" font-size="14.00" fill="#000000">gen()</text>
<text text-anchor="start" x="198.5" y="-357.3" font-family="Times,serif" font-size="14.00" fill="#000000">gen_code()</text>
<text text-anchor="start" x="198.5" y="-342.3" font-family="Times,serif" font-size="14.00" fill="#000000">unique_declarations()</text>
<text text-anchor="start" x="198.5" y="-327.3" font-family="Times,serif" font-size="14.00" fill="#000000">unique_declns_by_intent()</text>
</g>
<!-- 20&#45;&gt;45 -->
<g id="edge1" class="edge">
<title>20&#45;&gt;45</title>
<path fill="none" stroke="#000000" d="M262.989,-267.7237C263.919,-281.281 264.8928,-295.4753 265.8282,-309.1108"/>
<polygon fill="none" stroke="#000000" points="262.3584,-309.6722 266.5347,-319.4092 269.342,-309.193 262.3584,-309.6722"/>
</g>
<!-- 21 -->
<g id="node2" class="node">
<title>21</title>
<polygon fill="none" stroke="#000000" points="272.5,-.5 272.5,-70.5 399.5,-70.5 399.5,-.5 272.5,-.5"/>
<text text-anchor="middle" x="336" y="-55.3" font-family="Times,serif" font-size="14.00" fill="#000000">DynInvokeSchedule</text>
<polyline fill="none" stroke="#000000" points="272.5,-47.5 399.5,-47.5 "/>
<polyline fill="none" stroke="#000000" points="272.5,-23.5 399.5,-23.5 "/>
<text text-anchor="start" x="280.5" y="-8.3" font-family="Times,serif" font-size="14.00" fill="#000000">view()</text>
</g>
<!-- 21&#45;&gt;20 -->
<g id="edge4" class="edge">
<title>21&#45;&gt;20</title>
<path fill="none" stroke="#000000" d="M318.8826,-70.503C312.9147,-82.7065 305.9361,-96.9769 298.8753,-111.4153"/>
<polygon fill="#000000" stroke="#000000" points="298.747,-111.6777 299.7045,-118.8249 293.4752,-122.4577 292.5178,-115.3104 298.747,-111.6777"/>
<text text-anchor="middle" x="336.5" y="-92.8" font-family="Times,serif" font-size="14.00" fill="#00ff00">_schedule</text>
</g>
<!-- 46 -->
<g id="node6" class="node">
<title>46</title>
<polygon fill="none" stroke="#000000" points="363,-152.5 363,-237.5 467,-237.5 467,-152.5 363,-152.5"/>
<text text-anchor="middle" x="415" y="-222.3" font-family="Times,serif" font-size="14.00" fill="#000000">InvokeSchedule</text>
<polyline fill="none" stroke="#000000" points="363,-214.5 467,-214.5 "/>
<polyline fill="none" stroke="#000000" points="363,-190.5 467,-190.5 "/>
<text text-anchor="start" x="371" y="-175.3" font-family="Times,serif" font-size="14.00" fill="#000000">gen_code()</text>
<text text-anchor="start" x="371" y="-160.3" font-family="Times,serif" font-size="14.00" fill="#000000">view()</text>
</g>
<!-- 21&#45;&gt;46 -->
<g id="edge3" class="edge">
<title>21&#45;&gt;46</title>
<path fill="none" stroke="#000000" d="M357.7897,-70.5524C361.331,-76.6323 364.8623,-82.9464 368,-89 376.9496,-106.2665 385.8379,-125.5971 393.4367,-142.9747"/>
<polygon fill="none" stroke="#000000" points="390.3332,-144.6159 397.5178,-152.4026 396.7572,-141.8351 390.3332,-144.6159"/>
</g>
<!-- 36 -->
<g id="node4" class="node">
<title>36</title>
<polygon fill="none" stroke="#000000" points="0,-674 0,-744 86,-744 86,-674 0,-674"/>
<text text-anchor="middle" x="43" y="-728.8" font-family="Times,serif" font-size="14.00" fill="#000000">DynamoPSy</text>
<polyline fill="none" stroke="#000000" points="0,-721 86,-721 "/>
<polyline fill="none" stroke="#000000" points="0,-697 86,-697 "/>
<text text-anchor="middle" x="43" y="-681.8" font-family="Times,serif" font-size="14.00" fill="#000000"> </text>
</g>
<!-- 35&#45;&gt;36 -->
<g id="edge6" class="edge">
<title>35&#45;&gt;36</title>
<path fill="none" stroke="#000000" d="M96.8157,-419.8625C88.7237,-434.2905 80.2736,-451.4508 75,-468 54.2517,-533.1106 46.9481,-612.2605 44.3822,-661.648"/>
<polygon fill="#000000" stroke="#000000" points="44.3728,-661.8529 48.0891,-668.0326 43.8141,-673.8399 40.0978,-667.6602 44.3728,-661.8529"/>
<text text-anchor="middle" x="99.5" y="-471.8" font-family="Times,serif" font-size="14.00" fill="#00ff00">_invokes</text>
</g>
<!-- 47 -->
<g id="node7" class="node">
<title>47</title>
<polygon fill="#faebd7" stroke="#000000" points="104.5,-659 104.5,-759 197.5,-759 197.5,-659 104.5,-659"/>
<text text-anchor="middle" x="151" y="-743.8" font-family="Times,serif" font-size="14.00" fill="#000000">Invokes</text>
<polyline fill="none" stroke="#000000" points="104.5,-736 197.5,-736 "/>
<polyline fill="none" stroke="#000000" points="104.5,-712 197.5,-712 "/>
<text text-anchor="start" x="112.5" y="-696.8" font-family="Times,serif" font-size="14.00" fill="#000000">gen_code()</text>
<text text-anchor="start" x="112.5" y="-681.8" font-family="Times,serif" font-size="14.00" fill="#000000">gen_ocl_init()</text>
<text text-anchor="start" x="112.5" y="-666.8" font-family="Times,serif" font-size="14.00" fill="#000000">get()</text>
</g>
<!-- 35&#45;&gt;47 -->
<g id="edge5" class="edge">
<title>35&#45;&gt;47</title>
<path fill="none" stroke="#000000" d="M122.455,-419.5355C127.8659,-474.4059 138.4067,-581.2958 145.0543,-648.7069"/>
<polygon fill="none" stroke="#000000" points="141.5815,-649.1558 146.0461,-658.764 148.5477,-648.4687 141.5815,-649.1558"/>
</g>
<!-- 55 -->
<g id="node9" class="node">
<title>55</title>
<polygon fill="#faebd7" stroke="#000000" points="15,-954.5 15,-1024.5 71,-1024.5 71,-954.5 15,-954.5"/>
<text text-anchor="middle" x="43" y="-1009.3" font-family="Times,serif" font-size="14.00" fill="#000000">PSy</text>
<polyline fill="none" stroke="#000000" points="15,-1001.5 71,-1001.5 "/>
<polyline fill="none" stroke="#000000" points="15,-977.5 71,-977.5 "/>
<text text-anchor="start" x="23" y="-962.3" font-family="Times,serif" font-size="14.00" fill="#000000">inline()</text>
</g>
<!-- 36&#45;&gt;55 -->
<g id="edge7" class="edge">
<title>36&#45;&gt;55</title>
<path fill="none" stroke="#000000" d="M43,-744.2415C43,-794.8346 43,-888.0855 43,-943.8821"/>
<polygon fill="none" stroke="#000000" points="39.5001,-944.182 43,-954.182 46.5001,-944.1821 39.5001,-944.182"/>
</g>
<!-- 56 -->
<g id="node10" class="node">
<title>56</title>
<polygon fill="#faebd7" stroke="#000000" points="382,-349.5 382,-419.5 448,-419.5 448,-349.5 382,-349.5"/>
<text text-anchor="middle" x="415" y="-404.3" font-family="Times,serif" font-size="14.00" fill="#000000">Schedule</text>
<polyline fill="none" stroke="#000000" points="382,-396.5 448,-396.5 "/>
<polyline fill="none" stroke="#000000" points="382,-372.5 448,-372.5 "/>
<text text-anchor="start" x="390" y="-357.3" font-family="Times,serif" font-size="14.00" fill="#000000">view()</text>
</g>
<!-- 46&#45;&gt;56 -->
<g id="edge8" class="edge">
<title>46&#45;&gt;56</title>
<path fill="none" stroke="#000000" d="M415,-237.5275C415,-267.8219 415,-308.4742 415,-339.3452"/>
<polygon fill="none" stroke="#000000" points="411.5001,-339.4104 415,-349.4105 418.5001,-339.4105 411.5001,-339.4104"/>
</g>
<!-- 54 -->
<g id="node8" class="node">
<title>54</title>
<polygon fill="none" stroke="#000000" points="340.5,-501.5 340.5,-916.5 489.5,-916.5 489.5,-501.5 340.5,-501.5"/>
<text text-anchor="middle" x="415" y="-901.3" font-family="Times,serif" font-size="14.00" fill="#000000">Node</text>
<polyline fill="none" stroke="#000000" points="340.5,-893.5 489.5,-893.5 "/>
<polyline fill="none" stroke="#000000" points="340.5,-869.5 489.5,-869.5 "/>
<text text-anchor="start" x="348.5" y="-854.3" font-family="Times,serif" font-size="14.00" fill="#000000">addchild()</text>
<text text-anchor="start" x="348.5" y="-839.3" font-family="Times,serif" font-size="14.00" fill="#000000">ancestor()</text>
<text text-anchor="start" x="348.5" y="-824.3" font-family="Times,serif" font-size="14.00" fill="#000000">backward_dependence()</text>
<text text-anchor="start" x="348.5" y="-809.3" font-family="Times,serif" font-size="14.00" fill="#000000">calls()</text>
<text text-anchor="start" x="348.5" y="-794.3" font-family="Times,serif" font-size="14.00" fill="#000000">dag()</text>
<text text-anchor="start" x="348.5" y="-779.3" font-family="Times,serif" font-size="14.00" fill="#000000">dag_gen()</text>
<text text-anchor="start" x="348.5" y="-764.3" font-family="Times,serif" font-size="14.00" fill="#000000">following()</text>
<text text-anchor="start" x="348.5" y="-749.3" font-family="Times,serif" font-size="14.00" fill="#000000">forward_dependence()</text>
<text text-anchor="start" x="348.5" y="-734.3" font-family="Times,serif" font-size="14.00" fill="#000000">gen_c_code()</text>
<text text-anchor="start" x="348.5" y="-719.3" font-family="Times,serif" font-size="14.00" fill="#000000">gen_code()</text>
<text text-anchor="start" x="348.5" y="-704.3" font-family="Times,serif" font-size="14.00" fill="#000000">indent()</text>
<text text-anchor="start" x="348.5" y="-689.3" font-family="Times,serif" font-size="14.00" fill="#000000">is_openmp_parallel()</text>
<text text-anchor="start" x="348.5" y="-674.3" font-family="Times,serif" font-size="14.00" fill="#000000">is_valid_location()</text>
<text text-anchor="start" x="348.5" y="-659.3" font-family="Times,serif" font-size="14.00" fill="#000000">kern_calls()</text>
<text text-anchor="start" x="348.5" y="-644.3" font-family="Times,serif" font-size="14.00" fill="#000000">list()</text>
<text text-anchor="start" x="348.5" y="-629.3" font-family="Times,serif" font-size="14.00" fill="#000000">list_to_string()</text>
<text text-anchor="start" x="348.5" y="-614.3" font-family="Times,serif" font-size="14.00" fill="#000000">loops()</text>
<text text-anchor="start" x="348.5" y="-599.3" font-family="Times,serif" font-size="14.00" fill="#000000">preceding()</text>
<text text-anchor="start" x="348.5" y="-584.3" font-family="Times,serif" font-size="14.00" fill="#000000">reductions()</text>
<text text-anchor="start" x="348.5" y="-569.3" font-family="Times,serif" font-size="14.00" fill="#000000">sameParent()</text>
<text text-anchor="start" x="348.5" y="-554.3" font-family="Times,serif" font-size="14.00" fill="#000000">sameRoot()</text>
<text text-anchor="start" x="348.5" y="-539.3" font-family="Times,serif" font-size="14.00" fill="#000000">update()</text>
<text text-anchor="start" x="348.5" y="-524.3" font-family="Times,serif" font-size="14.00" fill="#000000">view()</text>
<text text-anchor="start" x="348.5" y="-509.3" font-family="Times,serif" font-size="14.00" fill="#000000">walk()</text>
</g>
<!-- 56&#45;&gt;54 -->
<g id="edge9" class="edge">
<title>56&#45;&gt;54</title>
<path fill="none" stroke="#000000" d="M415,-419.5355C415,-438.4372 415,-463.5119 415,-491.0192"/>
<polygon fill="none" stroke="#000000" points="411.5001,-491.2566 415,-501.2566 418.5001,-491.2566 411.5001,-491.2566"/>
</g>
</g>
</svg>
