<?xml version="1.0" encoding="UTF-8" standalone="no"?>
<!DOCTYPE svg PUBLIC "-//W3C//DTD SVG 1.1//EN"
 "http://www.w3.org/Graphics/SVG/1.1/DTD/svg11.dtd">
<!-- Generated by graphviz version 2.43.0 (0)
 -->
<!-- Title: classes_dynamo0p3 Pages: 1 -->
<svg width="584pt" height="1018pt"
 viewBox="0.00 0.00 583.50 1018.00" xmlns="http://www.w3.org/2000/svg" xmlns:xlink="http://www.w3.org/1999/xlink">
<g id="graph0" class="graph" transform="scale(1 1) rotate(0) translate(4 1014)">
<title>classes_dynamo0p3</title>
<polygon fill="white" stroke="transparent" points="-4,4 -4,-1014 579.5,-1014 579.5,4 -4,4"/>
<!-- 20 -->
<g id="node1" class="node">
<title>20</title>
<polygon fill="none" stroke="black" points="242.5,-122.5 242.5,-252.5 398.5,-252.5 398.5,-122.5 242.5,-122.5"/>
<text text-anchor="middle" x="320.5" y="-237.3" font-family="Times,serif" font-size="14.00">DynInvoke</text>
<polyline fill="none" stroke="black" points="242.5,-229.5 398.5,-229.5 "/>
<polyline fill="none" stroke="black" points="242.5,-205.5 398.5,-205.5 "/>
<text text-anchor="start" x="250.5" y="-190.3" font-family="Times,serif" font-size="14.00">arg_for_funcspace()</text>
<text text-anchor="start" x="250.5" y="-175.3" font-family="Times,serif" font-size="14.00">field_on_space()</text>
<text text-anchor="start" x="250.5" y="-160.3" font-family="Times,serif" font-size="14.00">gen_code()</text>
<text text-anchor="start" x="250.5" y="-145.3" font-family="Times,serif" font-size="14.00">is_coloured()</text>
<text text-anchor="start" x="250.5" y="-130.3" font-family="Times,serif" font-size="14.00">unique_fss()</text>
</g>
<!-- 35 -->
<g id="node3" class="node">
<title>35</title>
<polygon fill="none" stroke="black" points="72.5,-334.5 72.5,-404.5 202.5,-404.5 202.5,-334.5 72.5,-334.5"/>
<text text-anchor="middle" x="137.5" y="-389.3" font-family="Times,serif" font-size="14.00">DynamoInvokes</text>
<polyline fill="none" stroke="black" points="72.5,-381.5 202.5,-381.5 "/>
<polyline fill="none" stroke="black" points="72.5,-357.5 202.5,-357.5 "/>
<text text-anchor="middle" x="137.5" y="-342.3" font-family="Times,serif" font-size="14.00"> </text>
</g>
<!-- 20&#45;&gt;35 -->
<g id="edge2" class="edge">
<title>20&#45;&gt;35</title>
<path fill="none" stroke="black" d="M255.21,-252.72C230.58,-276.95 203.18,-303.89 181.02,-325.69"/>
<polygon fill="black" stroke="black" points="180.74,-325.97 179.26,-333.03 172.18,-334.39 173.65,-327.33 180.74,-325.97"/>
<text text-anchor="middle" x="261" y="-274.8" font-family="Times,serif" font-size="14.00" fill="green">_0_to_n</text>
</g>
<!-- 45 -->
<g id="node5" class="node">
<title>45</title>
<polygon fill="antiquewhite" stroke="black" points="220.5,-304.5 220.5,-434.5 422.5,-434.5 422.5,-304.5 220.5,-304.5"/>
<text text-anchor="middle" x="321.5" y="-419.3" font-family="Times,serif" font-size="14.00">Invoke</text>
<polyline fill="none" stroke="black" points="220.5,-411.5 422.5,-411.5 "/>
<polyline fill="none" stroke="black" points="220.5,-387.5 422.5,-387.5 "/>
<text text-anchor="start" x="228.5" y="-372.3" font-family="Times,serif" font-size="14.00">first_access()</text>
<text text-anchor="start" x="228.5" y="-357.3" font-family="Times,serif" font-size="14.00">gen()</text>
<text text-anchor="start" x="228.5" y="-342.3" font-family="Times,serif" font-size="14.00">gen_code()</text>
<text text-anchor="start" x="228.5" y="-327.3" font-family="Times,serif" font-size="14.00">unique_declarations()</text>
<text text-anchor="start" x="228.5" y="-312.3" font-family="Times,serif" font-size="14.00">unique_declns_by_intent()</text>
</g>
<!-- 20&#45;&gt;45 -->
<g id="edge1" class="edge">
<title>20&#45;&gt;45</title>
<path fill="none" stroke="black" d="M320.86,-252.72C320.93,-266.08 321.01,-280.26 321.09,-293.95"/>
<polygon fill="none" stroke="black" points="317.59,-294.32 321.14,-304.3 324.59,-294.28 317.59,-294.32"/>
</g>
<!-- 21 -->
<g id="node2" class="node">
<title>21</title>
<polygon fill="none" stroke="black" points="321.5,-0.5 321.5,-70.5 479.5,-70.5 479.5,-0.5 321.5,-0.5"/>
<text text-anchor="middle" x="400.5" y="-55.3" font-family="Times,serif" font-size="14.00">DynInvokeSchedule</text>
<polyline fill="none" stroke="black" points="321.5,-47.5 479.5,-47.5 "/>
<polyline fill="none" stroke="black" points="321.5,-23.5 479.5,-23.5 "/>
<text text-anchor="start" x="329.5" y="-8.3" font-family="Times,serif" font-size="14.00">view()</text>
</g>
<!-- 21&#45;&gt;20 -->
<g id="edge4" class="edge">
<title>21&#45;&gt;20</title>
<path fill="none" stroke="black" d="M382.35,-70.54C375.81,-82.8 368.15,-97.17 360.48,-111.53"/>
<polygon fill="black" stroke="black" points="360.29,-111.89 361,-119.07 354.64,-122.48 353.94,-115.31 360.29,-111.89"/>
<text text-anchor="middle" x="407.5" y="-92.8" font-family="Times,serif" font-size="14.00" fill="green">_schedule</text>
</g>
<!-- 46 -->
<g id="node6" class="node">
<title>46</title>
<polygon fill="none" stroke="black" points="417,-145 417,-230 546,-230 546,-145 417,-145"/>
<text text-anchor="middle" x="481.5" y="-214.8" font-family="Times,serif" font-size="14.00">InvokeSchedule</text>
<polyline fill="none" stroke="black" points="417,-207 546,-207 "/>
<polyline fill="none" stroke="black" points="417,-183 546,-183 "/>
<text text-anchor="start" x="425" y="-167.8" font-family="Times,serif" font-size="14.00">gen_code()</text>
<text text-anchor="start" x="425" y="-152.8" font-family="Times,serif" font-size="14.00">view()</text>
</g>
<!-- 21&#45;&gt;46 -->
<g id="edge3" class="edge">
<title>21&#45;&gt;46</title>
<path fill="none" stroke="black" d="M433.62,-70.68C438.32,-76.52 442.81,-82.73 446.5,-89 454.81,-103.11 461.63,-119.52 466.98,-134.81"/>
<polygon fill="none" stroke="black" points="463.78,-136.28 470.28,-144.65 470.42,-134.06 463.78,-136.28"/>
</g>
<!-- 36 -->
<g id="node4" class="node">
<title>36</title>
<polygon fill="none" stroke="black" points="0,-659 0,-729 103,-729 103,-659 0,-659"/>
<text text-anchor="middle" x="51.5" y="-713.8" font-family="Times,serif" font-size="14.00">DynamoPSy</text>
<polyline fill="none" stroke="black" points="0,-706 103,-706 "/>
<polyline fill="none" stroke="black" points="0,-682 103,-682 "/>
<text text-anchor="middle" x="51.5" y="-666.8" font-family="Times,serif" font-size="14.00"> </text>
</g>
<!-- 35&#45;&gt;36 -->
<g id="edge6" class="edge">
<title>35&#45;&gt;36</title>
<path fill="none" stroke="black" d="M110.12,-404.76C100.17,-418.93 89.83,-435.99 83.5,-453 59.57,-517.33 53.15,-597.24 51.64,-646.68"/>
<polygon fill="black" stroke="black" points="51.63,-646.87 55.49,-652.96 51.34,-658.87 47.49,-652.77 51.63,-646.87"/>
<text text-anchor="middle" x="114" y="-456.8" font-family="Times,serif" font-size="14.00" fill="green">_invokes</text>
</g>
<!-- 47 -->
<g id="node7" class="node">
<title>47</title>
<polygon fill="antiquewhite" stroke="black" points="121,-644 121,-744 232,-744 232,-644 121,-644"/>
<text text-anchor="middle" x="176.5" y="-728.8" font-family="Times,serif" font-size="14.00">Invokes</text>
<polyline fill="none" stroke="black" points="121,-721 232,-721 "/>
<polyline fill="none" stroke="black" points="121,-697 232,-697 "/>
<text text-anchor="start" x="129" y="-681.8" font-family="Times,serif" font-size="14.00">gen_code()</text>
<text text-anchor="start" x="129" y="-666.8" font-family="Times,serif" font-size="14.00">gen_ocl_init()</text>
<text text-anchor="start" x="129" y="-651.8" font-family="Times,serif" font-size="14.00">get()</text>
</g>
<!-- 35&#45;&gt;47 -->
<g id="edge5" class="edge">
<title>35&#45;&gt;47</title>
<path fill="none" stroke="black" d="M141.64,-404.71C148.24,-459.29 161.23,-566.77 169.36,-633.96"/>
<polygon fill="none" stroke="black" points="165.9,-634.47 170.57,-643.98 172.85,-633.63 165.9,-634.47"/>
</g>
<!-- 55 -->
<g id="node9" class="node">
<title>55</title>
<polygon fill="antiquewhite" stroke="black" points="18,-939.5 18,-1009.5 85,-1009.5 85,-939.5 18,-939.5"/>
<text text-anchor="middle" x="51.5" y="-994.3" font-family="Times,serif" font-size="14.00">PSy</text>
<polyline fill="none" stroke="black" points="18,-986.5 85,-986.5 "/>
<polyline fill="none" stroke="black" points="18,-962.5 85,-962.5 "/>
<text text-anchor="start" x="26" y="-947.3" font-family="Times,serif" font-size="14.00">inline()</text>
</g>
<!-- 36&#45;&gt;55 -->
<g id="edge7" class="edge">
<title>36&#45;&gt;55</title>
<path fill="none" stroke="black" d="M51.5,-729.15C51.5,-779.36 51.5,-873.17 51.5,-928.81"/>
<polygon fill="none" stroke="black" points="48,-929.07 51.5,-939.07 55,-929.07 48,-929.07"/>
</g>
<!-- 56 -->
<g id="node10" class="node">
<title>56</title>
<polygon fill="antiquewhite" stroke="black" points="440.5,-334.5 440.5,-404.5 522.5,-404.5 522.5,-334.5 440.5,-334.5"/>
<text text-anchor="middle" x="481.5" y="-389.3" font-family="Times,serif" font-size="14.00">Schedule</text>
<polyline fill="none" stroke="black" points="440.5,-381.5 522.5,-381.5 "/>
<polyline fill="none" stroke="black" points="440.5,-357.5 522.5,-357.5 "/>
<text text-anchor="start" x="448.5" y="-342.3" font-family="Times,serif" font-size="14.00">view()</text>
</g>
<!-- 46&#45;&gt;56 -->
<g id="edge8" class="edge">
<title>46&#45;&gt;56</title>
<path fill="none" stroke="black" d="M481.5,-230.25C481.5,-258.37 481.5,-295.41 481.5,-324.07"/>
<polygon fill="none" stroke="black" points="478,-324.22 481.5,-334.22 485,-324.22 478,-324.22"/>
</g>
<!-- 54 -->
<g id="node8" class="node">
<title>54</title>
<polygon fill="none" stroke="black" points="387.5,-486.5 387.5,-901.5 575.5,-901.5 575.5,-486.5 387.5,-486.5"/>
<text text-anchor="middle" x="481.5" y="-886.3" font-family="Times,serif" font-size="14.00">Node</text>
<polyline fill="none" stroke="black" points="387.5,-878.5 575.5,-878.5 "/>
<polyline fill="none" stroke="black" points="387.5,-854.5 575.5,-854.5 "/>
<text text-anchor="start" x="395.5" y="-839.3" font-family="Times,serif" font-size="14.00">addchild()</text>
<text text-anchor="start" x="395.5" y="-824.3" font-family="Times,serif" font-size="14.00">ancestor()</text>
<text text-anchor="start" x="395.5" y="-809.3" font-family="Times,serif" font-size="14.00">backward_dependence()</text>
<text text-anchor="start" x="395.5" y="-794.3" font-family="Times,serif" font-size="14.00">calls()</text>
<text text-anchor="start" x="395.5" y="-779.3" font-family="Times,serif" font-size="14.00">dag()</text>
<text text-anchor="start" x="395.5" y="-764.3" font-family="Times,serif" font-size="14.00">dag_gen()</text>
<text text-anchor="start" x="395.5" y="-749.3" font-family="Times,serif" font-size="14.00">following()</text>
<text text-anchor="start" x="395.5" y="-734.3" font-family="Times,serif" font-size="14.00">forward_dependence()</text>
<text text-anchor="start" x="395.5" y="-719.3" font-family="Times,serif" font-size="14.00">gen_c_code()</text>
<text text-anchor="start" x="395.5" y="-704.3" font-family="Times,serif" font-size="14.00">gen_code()</text>
<text text-anchor="start" x="395.5" y="-689.3" font-family="Times,serif" font-size="14.00">indent()</text>
<text text-anchor="start" x="395.5" y="-674.3" font-family="Times,serif" font-size="14.00">is_openmp_parallel()</text>
<text text-anchor="start" x="395.5" y="-659.3" font-family="Times,serif" font-size="14.00">is_valid_location()</text>
<text text-anchor="start" x="395.5" y="-644.3" font-family="Times,serif" font-size="14.00">kern_calls()</text>
<text text-anchor="start" x="395.5" y="-629.3" font-family="Times,serif" font-size="14.00">list()</text>
<text text-anchor="start" x="395.5" y="-614.3" font-family="Times,serif" font-size="14.00">list_to_string()</text>
<text text-anchor="start" x="395.5" y="-599.3" font-family="Times,serif" font-size="14.00">loops()</text>
<text text-anchor="start" x="395.5" y="-584.3" font-family="Times,serif" font-size="14.00">preceding()</text>
<text text-anchor="start" x="395.5" y="-569.3" font-family="Times,serif" font-size="14.00">reductions()</text>
<text text-anchor="start" x="395.5" y="-554.3" font-family="Times,serif" font-size="14.00">sameParent()</text>
<text text-anchor="start" x="395.5" y="-539.3" font-family="Times,serif" font-size="14.00">sameRoot()</text>
<text text-anchor="start" x="395.5" y="-524.3" font-family="Times,serif" font-size="14.00">update()</text>
<text text-anchor="start" x="395.5" y="-509.3" font-family="Times,serif" font-size="14.00">view()</text>
<text text-anchor="start" x="395.5" y="-494.3" font-family="Times,serif" font-size="14.00">walk()</text>
</g>
<!-- 56&#45;&gt;54 -->
<g id="edge9" class="edge">
<title>56&#45;&gt;54</title>
<path fill="none" stroke="black" d="M481.5,-404.71C481.5,-423.48 481.5,-448.5 481.5,-475.99"/>
<polygon fill="none" stroke="black" points="478,-476.22 481.5,-486.22 485,-476.22 478,-476.22"/>
</g>
</g>
</svg>
