<?xml version="1.0" encoding="UTF-8" standalone="no"?>
<!DOCTYPE svg PUBLIC "-//W3C//DTD SVG 1.1//EN"
 "http://www.w3.org/Graphics/SVG/1.1/DTD/svg11.dtd">
<!-- Generated by graphviz version 2.43.0 (0)
 -->
<!-- Title: %3 Pages: 1 -->
<svg width="312pt" height="566pt"
 viewBox="0.00 0.00 312.14 566.00" xmlns="http://www.w3.org/2000/svg" xmlns:xlink="http://www.w3.org/1999/xlink">
<g id="graph0" class="graph" transform="scale(1 1) rotate(0) translate(4 562)">
<title>%3</title>
<polygon fill="white" stroke="transparent" points="-4,4 -4,-562 308.14,-562 308.14,4 -4,4"/>
<!-- a -->
<g id="node1" class="node">
<title>a</title>
<ellipse fill="none" stroke="black" cx="155.69" cy="-540" rx="27" ry="18"/>
<text text-anchor="middle" x="155.69" y="-536.3" font-family="Times,serif" font-size="14.00">a</text>
</g>
<!-- c = a + 1.0 -->
<g id="node2" class="node">
<title>c = a + 1.0</title>
<ellipse fill="none" stroke="black" cx="64.69" cy="-453" rx="63.09" ry="18"/>
<text text-anchor="middle" x="64.69" y="-449.3" font-family="Times,serif" font-size="14.00">c = a + 1.0</text>
</g>
<!-- a&#45;&gt;c = a + 1.0 -->
<g id="edge1" class="edge">
<title>a&#45;&gt;c = a + 1.0</title>
<path fill="none" stroke="black" d="M140.67,-524.96C126.87,-512.08 106.16,-492.73 89.84,-477.49"/>
<polygon fill="black" stroke="black" points="91.93,-474.65 82.24,-470.39 87.16,-479.77 91.93,-474.65"/>
<text text-anchor="middle" x="120.19" y="-492.8" font-family="Times,serif" font-size="14.00">a</text>
</g>
<!-- c = d * a -->
<g id="node4" class="node">
<title>c = d * a</title>
<ellipse fill="none" stroke="black" cx="148.69" cy="-279" rx="50.89" ry="18"/>
<text text-anchor="middle" x="148.69" y="-275.3" font-family="Times,serif" font-size="14.00">c = d * a</text>
</g>
<!-- a&#45;&gt;c = d * a -->
<g id="edge3" class="edge">
<title>a&#45;&gt;c = d * a</title>
<path fill="none" stroke="black" d="M155.22,-521.6C154.03,-477.46 150.88,-360.83 149.44,-307.42"/>
<polygon fill="black" stroke="black" points="152.93,-307.22 149.16,-297.32 145.93,-307.41 152.93,-307.22"/>
<text text-anchor="middle" x="157.19" y="-405.8" font-family="Times,serif" font-size="14.00">a</text>
</g>
<!-- e = a ** 2 -->
<g id="node6" class="node">
<title>e = a ** 2</title>
<ellipse fill="none" stroke="black" cx="241.69" cy="-453" rx="55.79" ry="18"/>
<text text-anchor="middle" x="241.69" y="-449.3" font-family="Times,serif" font-size="14.00">e = a ** 2</text>
</g>
<!-- a&#45;&gt;e = a ** 2 -->
<g id="edge5" class="edge">
<title>a&#45;&gt;e = a ** 2</title>
<path fill="none" stroke="black" d="M170.28,-524.58C183.38,-511.64 202.84,-492.4 218.14,-477.28"/>
<polygon fill="black" stroke="black" points="220.62,-479.75 225.27,-470.23 215.7,-474.77 220.62,-479.75"/>
<text text-anchor="middle" x="209.19" y="-492.8" font-family="Times,serif" font-size="14.00">a</text>
</g>
<!-- d = c + 2.0 -->
<g id="node3" class="node">
<title>d = c + 2.0</title>
<ellipse fill="none" stroke="black" cx="63.69" cy="-366" rx="63.89" ry="18"/>
<text text-anchor="middle" x="63.69" y="-362.3" font-family="Times,serif" font-size="14.00">d = c + 2.0</text>
</g>
<!-- c = a + 1.0&#45;&gt;d = c + 2.0 -->
<g id="edge7" class="edge">
<title>c = a + 1.0&#45;&gt;d = c + 2.0</title>
<path fill="none" stroke="black" d="M64.49,-434.8C64.36,-423.16 64.17,-407.55 64.01,-394.24"/>
<polygon fill="black" stroke="black" points="67.51,-394.13 63.9,-384.18 60.51,-394.22 67.51,-394.13"/>
<text text-anchor="middle" x="68.69" y="-405.8" font-family="Times,serif" font-size="14.00">c</text>
</g>
<!-- d = c + 2.0&#45;&gt;c = d * a -->
<g id="edge2" class="edge">
<title>d = c + 2.0&#45;&gt;c = d * a</title>
<path fill="none" stroke="black" d="M80.49,-348.21C93.22,-335.47 110.89,-317.8 125.06,-303.64"/>
<polygon fill="black" stroke="black" points="127.92,-305.73 132.51,-296.18 122.97,-300.78 127.92,-305.73"/>
<text text-anchor="middle" x="116.69" y="-318.8" font-family="Times,serif" font-size="14.00">d</text>
</g>
<!-- b = c + d -->
<g id="node8" class="node">
<title>b = c + d</title>
<ellipse fill="none" stroke="black" cx="63.69" cy="-192" rx="54.69" ry="18"/>
<text text-anchor="middle" x="63.69" y="-188.3" font-family="Times,serif" font-size="14.00">b = c + d</text>
</g>
<!-- d = c + 2.0&#45;&gt;b = c + d -->
<g id="edge9" class="edge">
<title>d = c + 2.0&#45;&gt;b = c + d</title>
<path fill="none" stroke="black" d="M63.69,-347.88C63.69,-318 63.69,-256.11 63.69,-220.27"/>
<polygon fill="black" stroke="black" points="67.19,-220.05 63.69,-210.05 60.19,-220.05 67.19,-220.05"/>
<text text-anchor="middle" x="68.69" y="-275.3" font-family="Times,serif" font-size="14.00">d</text>
</g>
<!-- call bar(c, b) -->
<g id="node5" class="node">
<title>call bar(c, b)</title>
<ellipse fill="none" stroke="black" cx="108.69" cy="-105" rx="68.79" ry="18"/>
<text text-anchor="middle" x="108.69" y="-101.3" font-family="Times,serif" font-size="14.00">call bar(c, b)</text>
</g>
<!-- c = d * a&#45;&gt;call bar(c, b) -->
<g id="edge4" class="edge">
<title>c = d * a&#45;&gt;call bar(c, b)</title>
<path fill="none" stroke="black" d="M145.65,-260.98C141.87,-240.32 135.01,-204.45 127.69,-174 124.4,-160.31 120.24,-145.22 116.65,-132.74"/>
<polygon fill="black" stroke="black" points="119.96,-131.58 113.8,-122.96 113.24,-133.54 119.96,-131.58"/>
<text text-anchor="middle" x="139.69" y="-188.3" font-family="Times,serif" font-size="14.00">c</text>
</g>
<!-- c = d * a&#45;&gt;b = c + d -->
<g id="edge8" class="edge">
<title>c = d * a&#45;&gt;b = c + d</title>
<path fill="none" stroke="black" d="M132.31,-261.61C119.49,-248.79 101.5,-230.8 87.15,-216.46"/>
<polygon fill="black" stroke="black" points="89.58,-213.93 80.03,-209.34 84.63,-218.88 89.58,-213.93"/>
<text text-anchor="middle" x="115.69" y="-231.8" font-family="Times,serif" font-size="14.00">c</text>
</g>
<!-- b = b + c -->
<g id="node9" class="node">
<title>b = b + c</title>
<ellipse fill="none" stroke="black" cx="108.69" cy="-18" rx="54.69" ry="18"/>
<text text-anchor="middle" x="108.69" y="-14.3" font-family="Times,serif" font-size="14.00">b = b + c</text>
</g>
<!-- call bar(c, b)&#45;&gt;b = b + c -->
<g id="edge11" class="edge">
<title>call bar(c, b)&#45;&gt;b = b + c</title>
<path fill="none" stroke="black" d="M99.24,-87.07C95,-77.47 91.4,-65.19 93.69,-54 94.28,-51.15 95.11,-48.24 96.08,-45.38"/>
<polygon fill="black" stroke="black" points="99.37,-46.58 99.78,-36 92.85,-44.02 99.37,-46.58"/>
<text text-anchor="middle" x="98.69" y="-57.8" font-family="Times,serif" font-size="14.00">b</text>
</g>
<!-- call bar(c, b)&#45;&gt;b = b + c -->
<g id="edge12" class="edge">
<title>call bar(c, b)&#45;&gt;b = b + c</title>
<path fill="none" stroke="black" d="M108.69,-86.8C108.69,-75.16 108.69,-59.55 108.69,-46.24"/>
<polygon fill="black" stroke="black" points="112.19,-46.18 108.69,-36.18 105.19,-46.18 112.19,-46.18"/>
<text text-anchor="middle" x="112.69" y="-57.8" font-family="Times,serif" font-size="14.00">c</text>
</g>
<!-- f = COS(e) -->
<g id="node7" class="node">
<title>f = COS(e)</title>
<ellipse fill="none" stroke="black" cx="243.69" cy="-366" rx="60.39" ry="18"/>
<text text-anchor="middle" x="243.69" y="-362.3" font-family="Times,serif" font-size="14.00">f = COS(e)</text>
</g>
<!-- e = a ** 2&#45;&gt;f = COS(e) -->
<g id="edge6" class="edge">
<title>e = a ** 2&#45;&gt;f = COS(e)</title>
<path fill="none" stroke="black" d="M242.1,-434.8C242.37,-423.16 242.74,-407.55 243.05,-394.24"/>
<polygon fill="black" stroke="black" points="246.55,-394.26 243.29,-384.18 239.56,-394.09 246.55,-394.26"/>
<text text-anchor="middle" x="247.19" y="-405.8" font-family="Times,serif" font-size="14.00">e</text>
</g>
<!-- b = c + d&#45;&gt;call bar(c, b) -->
<g id="edge10" class="edge">
<title>b = c + d&#45;&gt;call bar(c, b)</title>
<path fill="none" stroke="black" d="M72.58,-174.21C78.95,-162.18 87.65,-145.75 94.92,-132.03"/>
<polygon fill="black" stroke="black" points="98.08,-133.52 99.67,-123.05 91.9,-130.25 98.08,-133.52"/>
<text text-anchor="middle" x="94.69" y="-144.8" font-family="Times,serif" font-size="14.00">b</text>
</g>
</g>
</svg>
