<?xml version="1.0" encoding="UTF-8" standalone="no"?><!DOCTYPE svg PUBLIC "-//W3C//DTD SVG 1.1//EN" "http://www.w3.org/Graphics/SVG/1.1/DTD/svg11.dtd"><svg width="100%" height="100%" viewBox="0 0 360 560" version="1.1" xmlns="http://www.w3.org/2000/svg" xmlns:xlink="http://www.w3.org/1999/xlink" xml:space="preserve" xmlns:serif="http://www.serif.com/" style="fill-rule:evenodd;clip-rule:evenodd;stroke-linecap:round;stroke-linejoin:round;stroke-miterlimit:1.5;"><g id="Mesh"><g id="Cube"><rect x="10" y="390" width="140" height="160" style="fill:none;stroke:#000;stroke-width:1px;"/><rect x="70" y="330" width="140" height="160" style="fill:none;stroke:#000;stroke-width:1px;"/><path d="M150,550l60,-60" style="fill:none;stroke:#000;stroke-width:1px;"/><path d="M150,390l60,-60" style="fill:none;stroke:#000;stroke-width:1px;"/><path d="M10,550l60,-60" style="fill:none;stroke:#000;stroke-width:1px;"/><path d="M10,390l60,-60" style="fill:none;stroke:#000;stroke-width:1px;"/><circle cx="110.984" cy="450" r="10.984" style="fill:#e1144a;"/><circle cx="10" cy="550" r="10" style="fill:#2514e1;"/><ellipse cx="149.161" cy="550" rx="9.161" ry="10" style="fill:#2514e1;"/><circle cx="70" cy="490" r="10" style="fill:#2514e1;"/><circle cx="210" cy="490" r="10" style="fill:#2514e1;"/><circle cx="10" cy="390" r="10" style="fill:#2514e1;"/><ellipse cx="149.161" cy="390" rx="9.161" ry="10" style="fill:#2514e1;"/><circle cx="70" cy="330" r="10" style="fill:#2514e1;"/><circle cx="210" cy="330" r="10" style="fill:#2514e1;"/></g><g id="Cube1" serif:id="Cube"><rect x="10" y="230" width="140" height="160" style="fill:none;stroke:#000;stroke-width:1px;"/><rect x="70" y="170" width="140" height="160" style="fill:none;stroke:#000;stroke-width:1px;"/><path d="M150,390l60,-60" style="fill:none;stroke:#000;stroke-width:1px;"/><path d="M150,230l60,-60" style="fill:none;stroke:#000;stroke-width:1px;"/><path d="M10,390l60,-60" style="fill:none;stroke:#000;stroke-width:1px;"/><path d="M10,230l60,-60" style="fill:none;stroke:#000;stroke-width:1px;"/><circle cx="110.984" cy="290" r="10.984" style="fill:#e1144a;"/><circle cx="10" cy="390" r="10" style="fill:#2514e1;"/><ellipse cx="149.161" cy="390" rx="9.161" ry="10" style="fill:#2514e1;"/><circle cx="70" cy="330" r="10" style="fill:#2514e1;"/><circle cx="210" cy="330" r="10" style="fill:#2514e1;"/><circle cx="10" cy="230" r="10" style="fill:#2514e1;"/><ellipse cx="149.161" cy="230" rx="9.161" ry="10" style="fill:#2514e1;"/><circle cx="70" cy="170" r="10" style="fill:#2514e1;"/><circle cx="210" cy="170" r="10" style="fill:#2514e1;"/></g><g id="Cube2" serif:id="Cube"><rect x="10" y="70" width="140" height="160" style="fill:none;stroke:#000;stroke-width:1px;"/><rect x="70" y="10" width="140" height="160" style="fill:none;stroke:#000;stroke-width:1px;"/><path d="M150,230l60,-60" style="fill:none;stroke:#000;stroke-width:1px;"/><path d="M150,70l60,-60" style="fill:none;stroke:#000;stroke-width:1px;"/><path d="M10,230l60,-60" style="fill:none;stroke:#000;stroke-width:1px;"/><path d="M10,70l60,-60" style="fill:none;stroke:#000;stroke-width:1px;"/><circle cx="110.984" cy="130" r="10.984" style="fill:#e1144a;"/><circle cx="10" cy="230" r="10" style="fill:#2514e1;"/><ellipse cx="149.161" cy="230" rx="9.161" ry="10" style="fill:#2514e1;"/><circle cx="70" cy="170" r="10" style="fill:#2514e1;"/><circle cx="210" cy="170" r="10" style="fill:#2514e1;"/><circle cx="10" cy="70" r="10" style="fill:#2514e1;"/><ellipse cx="149.161" cy="70" rx="9.161" ry="10" style="fill:#2514e1;"/><circle cx="70" cy="10" r="10" style="fill:#2514e1;"/><circle cx="210" cy="10" r="10" style="fill:#2514e1;"/></g><g id="Cube3" serif:id="Cube"><rect x="150" y="390" width="140" height="160" style="fill:none;stroke:#000;stroke-width:1px;"/><rect x="210" y="330" width="140" height="160" style="fill:none;stroke:#000;stroke-width:1px;"/><path d="M290,550l60,-60" style="fill:none;stroke:#000;stroke-width:1px;"/><path d="M290,390l60,-60" style="fill:none;stroke:#000;stroke-width:1px;"/><path d="M150,550l60,-60" style="fill:none;stroke:#000;stroke-width:1px;"/><path d="M150,390l60,-60" style="fill:none;stroke:#000;stroke-width:1px;"/><circle cx="250.984" cy="450" r="10.984" style="fill:#e1144a;"/><circle cx="150" cy="550" r="10" style="fill:#2514e1;"/><ellipse cx="289.161" cy="550" rx="9.161" ry="10" style="fill:#2514e1;"/><circle cx="210" cy="490" r="10" style="fill:#2514e1;"/><circle cx="350" cy="490" r="10" style="fill:#2514e1;"/><circle cx="150" cy="390" r="10" style="fill:#2514e1;"/><ellipse cx="289.161" cy="390" rx="9.161" ry="10" style="fill:#2514e1;"/><circle cx="210" cy="330" r="10" style="fill:#2514e1;"/><circle cx="350" cy="330" r="10" style="fill:#2514e1;"/></g><g id="Cube4" serif:id="Cube"><rect x="150" y="230" width="140" height="160" style="fill:none;stroke:#000;stroke-width:1px;"/><rect x="210" y="170" width="140" height="160" style="fill:none;stroke:#000;stroke-width:1px;"/><path d="M290,390l60,-60" style="fill:none;stroke:#000;stroke-width:1px;"/><path d="M290,230l60,-60" style="fill:none;stroke:#000;stroke-width:1px;"/><path d="M150,390l60,-60" style="fill:none;stroke:#000;stroke-width:1px;"/><path d="M150,230l60,-60" style="fill:none;stroke:#000;stroke-width:1px;"/><circle cx="250.984" cy="290" r="10.984" style="fill:#e1144a;"/><circle cx="150" cy="390" r="10" style="fill:#2514e1;"/><ellipse cx="289.161" cy="390" rx="9.161" ry="10" style="fill:#2514e1;"/><circle cx="210" cy="330" r="10" style="fill:#2514e1;"/><circle cx="350" cy="330" r="10" style="fill:#2514e1;"/><circle cx="150" cy="230" r="10" style="fill:#2514e1;"/><ellipse cx="289.161" cy="230" rx="9.161" ry="10" style="fill:#2514e1;"/><circle cx="210" cy="170" r="10" style="fill:#2514e1;"/><circle cx="350" cy="170" r="10" style="fill:#2514e1;"/></g><g id="Cube5" serif:id="Cube"><rect x="150" y="70" width="140" height="160" style="fill:none;stroke:#000;stroke-width:1px;"/><rect x="210" y="10" width="140" height="160" style="fill:none;stroke:#000;stroke-width:1px;"/><path d="M290,230l60,-60" style="fill:none;stroke:#000;stroke-width:1px;"/><path d="M290,70l60,-60" style="fill:none;stroke:#000;stroke-width:1px;"/><path d="M150,230l60,-60" style="fill:none;stroke:#000;stroke-width:1px;"/><path d="M150,70l60,-60" style="fill:none;stroke:#000;stroke-width:1px;"/><circle cx="250.984" cy="130" r="10.984" style="fill:#e1144a;"/><circle cx="150" cy="230" r="10" style="fill:#2514e1;"/><ellipse cx="289.161" cy="230" rx="9.161" ry="10" style="fill:#2514e1;"/><circle cx="210" cy="170" r="10" style="fill:#2514e1;"/><circle cx="350" cy="170" r="10" style="fill:#2514e1;"/><circle cx="150" cy="70" r="10" style="fill:#2514e1;"/><ellipse cx="289.161" cy="70" rx="9.161" ry="10" style="fill:#2514e1;"/><circle cx="210" cy="10" r="10" style="fill:#2514e1;"/><circle cx="350" cy="10" r="10" style="fill:#2514e1;"/></g></g><g id="Summation-Lines" serif:id="Summation Lines"><path d="M107.57,112.489l-0.915,6.527l-4.672,-4.648l5.587,-1.879Z"/><path d="M70,10c-0,0 28.259,84.044 35.152,104.546" style="fill:none;stroke:#000;stroke-width:1.96px;stroke-dasharray:3.93,3.93,3.93,3.93,3.93,0;"/><path d="M96.517,119.621l3.483,5.594l-6.566,-0.57l3.083,-5.024Z"/><path d="M10,70c0,0 68.504,42.027 85.98,52.749" style="fill:none;stroke:#000;stroke-width:1.96px;stroke-dasharray:3.93,3.93,3.93,3.93,3.93,0;"/><path d="M122.853,117.809l-5.663,3.372l0.7,-6.553l4.963,3.181Z"/><path d="M150,70c0,0 -22.558,35.189 -30.265,47.211" style="fill:none;stroke:#000;stroke-width:1.96px;stroke-dasharray:3.93,3.93,3.93,3.93,3.93,0;"/><path d="M96.527,139.368l6.255,-2.077l-2.091,6.25l-4.164,-4.173Z"/><path d="M70,170c-0,0 21.099,-21.053 29.443,-29.378" style="fill:none;stroke:#000;stroke-width:1.96px;stroke-dasharray:3.93,3.93,3.93,3.93,3.93,0;"/><path d="M96.529,139.373l6.253,-2.082l-2.087,6.251l-4.166,-4.169Z"/><path d="M10,230c0,-0 72.853,-72.796 89.446,-89.376" style="fill:none;stroke:#000;stroke-width:1.96px;stroke-dasharray:3.93,3.93,3.93,3.93,3.93,0;"/><path d="M114.736,146.546l0.635,-6.56l4.867,4.443l-5.502,2.117Z"/><path d="M150,230c0,-0 -25.984,-67.543 -32.936,-85.613" style="fill:none;stroke:#000;stroke-width:1.96px;stroke-dasharray:3.93,3.93,3.93,3.93,3.93,0;"/><path d="M125.385,138.772l-4.35,-4.951l6.571,-0.509l-2.221,5.46Z"/><path d="M210,170c0,0 -66.71,-27.128 -84.597,-34.402" style="fill:none;stroke:#000;stroke-width:1.96px;stroke-dasharray:3.93,3.93,3.93,3.93,3.93,0;"/><path d="M124.32,119.689l-6.01,2.705l1.443,-6.431l4.567,3.726Z"/><path d="M210,10c0,0 -72.943,89.415 -88.709,108.74" style="fill:none;stroke:#000;stroke-width:1.96px;stroke-dasharray:3.93,3.93,3.93,3.93,3.93,0;"/></g></svg>