<?xml version="1.0" encoding="UTF-8" standalone="no"?><!DOCTYPE svg PUBLIC "-//W3C//DTD SVG 1.1//EN" "http://www.w3.org/Graphics/SVG/1.1/DTD/svg11.dtd"><svg width="100%" height="100%" viewBox="0 0 140 218" version="1.1" xmlns="http://www.w3.org/2000/svg" xmlns:xlink="http://www.w3.org/1999/xlink" xml:space="preserve" xmlns:serif="http://www.serif.com/" style="fill-rule:evenodd;clip-rule:evenodd;stroke-linecap:round;stroke-linejoin:round;stroke-miterlimit:1.5;"><g id="Mesh"><g id="Cube"><rect x="3.879" y="151.281" width="54.306" height="62.064" style="fill:none;stroke:#000;stroke-width:1px;"/><rect x="27.153" y="128.007" width="54.306" height="62.064" style="fill:none;stroke:#000;stroke-width:1px;"/><path d="M58.185,213.345l23.274,-23.274" style="fill:none;stroke:#000;stroke-width:1px;"/><path d="M58.185,151.281l23.274,-23.274" style="fill:none;stroke:#000;stroke-width:1px;"/><path d="M3.879,213.345l23.274,-23.274" style="fill:none;stroke:#000;stroke-width:1px;"/><path d="M3.879,151.281l23.274,-23.274" style="fill:none;stroke:#000;stroke-width:1px;"/><circle cx="43.051" cy="174.555" r="4.261" style="fill:#e1144a;"/><circle cx="3.879" cy="213.345" r="3.879" style="fill:#2514e1;"/><ellipse cx="57.86" cy="213.345" rx="3.554" ry="3.879" style="fill:#2514e1;"/><circle cx="27.153" cy="190.071" r="3.879" style="fill:#2514e1;"/><circle cx="81.459" cy="190.071" r="3.879" style="fill:#2514e1;"/><circle cx="3.879" cy="151.281" r="3.879" style="fill:#2514e1;"/><ellipse cx="57.86" cy="151.281" rx="3.554" ry="3.879" style="fill:#2514e1;"/><circle cx="27.153" cy="128.007" r="3.879" style="fill:#2514e1;"/><circle cx="81.459" cy="128.007" r="3.879" style="fill:#2514e1;"/></g><g id="Cube1" serif:id="Cube"><rect x="3.879" y="89.217" width="54.306" height="62.064" style="fill:none;stroke:#000;stroke-width:1px;"/><rect x="27.153" y="65.943" width="54.306" height="62.064" style="fill:none;stroke:#000;stroke-width:1px;"/><path d="M58.185,151.281l23.274,-23.274" style="fill:none;stroke:#000;stroke-width:1px;"/><path d="M58.185,89.217l23.274,-23.274" style="fill:none;stroke:#000;stroke-width:1px;"/><path d="M3.879,151.281l23.274,-23.274" style="fill:none;stroke:#000;stroke-width:1px;"/><path d="M3.879,89.217l23.274,-23.274" style="fill:none;stroke:#000;stroke-width:1px;"/><circle cx="43.051" cy="112.491" r="4.261" style="fill:#e1144a;"/><circle cx="3.879" cy="151.281" r="3.879" style="fill:#2514e1;"/><ellipse cx="57.86" cy="151.281" rx="3.554" ry="3.879" style="fill:#2514e1;"/><circle cx="27.153" cy="128.007" r="3.879" style="fill:#2514e1;"/><circle cx="81.459" cy="128.007" r="3.879" style="fill:#2514e1;"/><circle cx="3.879" cy="89.217" r="3.879" style="fill:#2514e1;"/><ellipse cx="57.86" cy="89.217" rx="3.554" ry="3.879" style="fill:#2514e1;"/><circle cx="27.153" cy="65.943" r="3.879" style="fill:#2514e1;"/><circle cx="81.459" cy="65.943" r="3.879" style="fill:#2514e1;"/></g><g id="Cube2" serif:id="Cube"><rect x="3.879" y="27.153" width="54.306" height="62.064" style="fill:none;stroke:#000;stroke-width:1px;"/><rect x="27.153" y="3.879" width="54.306" height="62.064" style="fill:none;stroke:#000;stroke-width:1px;"/><path d="M58.185,89.217l23.274,-23.274" style="fill:none;stroke:#000;stroke-width:1px;"/><path d="M58.185,27.153l23.274,-23.274" style="fill:none;stroke:#000;stroke-width:1px;"/><path d="M3.879,89.217l23.274,-23.274" style="fill:none;stroke:#000;stroke-width:1px;"/><path d="M3.879,27.153l23.274,-23.274" style="fill:none;stroke:#000;stroke-width:1px;"/><circle cx="43.051" cy="50.427" r="4.261" style="fill:#e1144a;"/><circle cx="3.879" cy="89.217" r="3.879" style="fill:#2514e1;"/><ellipse cx="57.86" cy="89.217" rx="3.554" ry="3.879" style="fill:#2514e1;"/><circle cx="27.153" cy="65.943" r="3.879" style="fill:#2514e1;"/><circle cx="81.459" cy="65.943" r="3.879" style="fill:#2514e1;"/><circle cx="3.879" cy="27.153" r="3.879" style="fill:#2514e1;"/><ellipse cx="57.86" cy="27.153" rx="3.554" ry="3.879" style="fill:#2514e1;"/><circle cx="27.153" cy="3.879" r="3.879" style="fill:#2514e1;"/><circle cx="81.459" cy="3.879" r="3.879" style="fill:#2514e1;"/></g><g id="Cube3" serif:id="Cube"><rect x="58.185" y="151.281" width="54.306" height="62.064" style="fill:none;stroke:#000;stroke-width:1px;"/><rect x="81.459" y="128.007" width="54.306" height="62.064" style="fill:none;stroke:#000;stroke-width:1px;"/><path d="M112.491,213.345l23.274,-23.274" style="fill:none;stroke:#000;stroke-width:1px;"/><path d="M112.491,151.281l23.274,-23.274" style="fill:none;stroke:#000;stroke-width:1px;"/><path d="M58.185,213.345l23.274,-23.274" style="fill:none;stroke:#000;stroke-width:1px;"/><path d="M58.185,151.281l23.274,-23.274" style="fill:none;stroke:#000;stroke-width:1px;"/><circle cx="97.357" cy="174.555" r="4.261" style="fill:#e1144a;"/><circle cx="58.185" cy="213.345" r="3.879" style="fill:#2514e1;"/><ellipse cx="112.166" cy="213.345" rx="3.554" ry="3.879" style="fill:#2514e1;"/><circle cx="81.459" cy="190.071" r="3.879" style="fill:#2514e1;"/><circle cx="135.765" cy="190.071" r="3.879" style="fill:#2514e1;"/><circle cx="58.185" cy="151.281" r="3.879" style="fill:#2514e1;"/><ellipse cx="112.166" cy="151.281" rx="3.554" ry="3.879" style="fill:#2514e1;"/><circle cx="81.459" cy="128.007" r="3.879" style="fill:#2514e1;"/><circle cx="135.765" cy="128.007" r="3.879" style="fill:#2514e1;"/></g><g id="Cube4" serif:id="Cube"><rect x="58.185" y="89.217" width="54.306" height="62.064" style="fill:none;stroke:#000;stroke-width:1px;"/><rect x="81.459" y="65.943" width="54.306" height="62.064" style="fill:none;stroke:#000;stroke-width:1px;"/><path d="M112.491,151.281l23.274,-23.274" style="fill:none;stroke:#000;stroke-width:1px;"/><path d="M112.491,89.217l23.274,-23.274" style="fill:none;stroke:#000;stroke-width:1px;"/><path d="M58.185,151.281l23.274,-23.274" style="fill:none;stroke:#000;stroke-width:1px;"/><path d="M58.185,89.217l23.274,-23.274" style="fill:none;stroke:#000;stroke-width:1px;"/><circle cx="97.357" cy="112.491" r="4.261" style="fill:#e1144a;"/><circle cx="58.185" cy="151.281" r="3.879" style="fill:#2514e1;"/><ellipse cx="112.166" cy="151.281" rx="3.554" ry="3.879" style="fill:#2514e1;"/><circle cx="81.459" cy="128.007" r="3.879" style="fill:#2514e1;"/><circle cx="135.765" cy="128.007" r="3.879" style="fill:#2514e1;"/><circle cx="58.185" cy="89.217" r="3.879" style="fill:#2514e1;"/><ellipse cx="112.166" cy="89.217" rx="3.554" ry="3.879" style="fill:#2514e1;"/><circle cx="81.459" cy="65.943" r="3.879" style="fill:#2514e1;"/><circle cx="135.765" cy="65.943" r="3.879" style="fill:#2514e1;"/></g><g id="Cube5" serif:id="Cube"><rect x="58.185" y="27.153" width="54.306" height="62.064" style="fill:none;stroke:#000;stroke-width:1px;"/><rect x="81.459" y="3.879" width="54.306" height="62.064" style="fill:none;stroke:#000;stroke-width:1px;"/><path d="M112.491,89.217l23.274,-23.274" style="fill:none;stroke:#000;stroke-width:1px;"/><path d="M112.491,27.153l23.274,-23.274" style="fill:none;stroke:#000;stroke-width:1px;"/><path d="M58.185,89.217l23.274,-23.274" style="fill:none;stroke:#000;stroke-width:1px;"/><path d="M58.185,27.153l23.274,-23.274" style="fill:none;stroke:#000;stroke-width:1px;"/><circle cx="97.357" cy="50.427" r="4.261" style="fill:#e1144a;"/><circle cx="58.185" cy="89.217" r="3.879" style="fill:#2514e1;"/><ellipse cx="112.166" cy="89.217" rx="3.554" ry="3.879" style="fill:#2514e1;"/><circle cx="81.459" cy="65.943" r="3.879" style="fill:#2514e1;"/><circle cx="135.765" cy="65.943" r="3.879" style="fill:#2514e1;"/><circle cx="58.185" cy="27.153" r="3.879" style="fill:#2514e1;"/><ellipse cx="112.166" cy="27.153" rx="3.554" ry="3.879" style="fill:#2514e1;"/><circle cx="81.459" cy="3.879" r="3.879" style="fill:#2514e1;"/><circle cx="135.765" cy="3.879" r="3.879" style="fill:#2514e1;"/></g></g></svg>