<?xml version="1.0" encoding="UTF-8" standalone="no"?><!DOCTYPE svg PUBLIC "-//W3C//DTD SVG 1.1//EN" "http://www.w3.org/Graphics/SVG/1.1/DTD/svg11.dtd"><svg width="100%" height="100%" viewBox="0 0 145 222" version="1.1" xmlns="http://www.w3.org/2000/svg" xmlns:xlink="http://www.w3.org/1999/xlink" xml:space="preserve" xmlns:serif="http://www.serif.com/" style="fill-rule:evenodd;clip-rule:evenodd;stroke-linecap:round;stroke-linejoin:round;stroke-miterlimit:1.5;"><g id="Mesh"><g id="Cube"><rect x="8.336" y="155.738" width="54.306" height="62.064" style="fill:none;stroke:#000;stroke-width:1px;"/><rect x="31.61" y="132.464" width="54.306" height="62.064" style="fill:none;stroke:#000;stroke-width:1px;"/><path d="M62.642,217.802l23.274,-23.274" style="fill:none;stroke:#000;stroke-width:1px;"/><path d="M62.642,155.738l23.274,-23.274" style="fill:none;stroke:#000;stroke-width:1px;"/><path d="M8.336,217.802l23.274,-23.274" style="fill:none;stroke:#000;stroke-width:1px;"/><path d="M8.336,155.738l23.274,-23.274" style="fill:none;stroke:#000;stroke-width:1px;"/><circle cx="47.508" cy="179.012" r="4.261" style="fill:#e1144a;"/><circle cx="8.336" cy="217.802" r="3.879" style="fill:#2514e1;"/><ellipse cx="62.317" cy="217.802" rx="3.554" ry="3.879" style="fill:#2514e1;"/><circle cx="31.61" cy="194.528" r="3.879" style="fill:#2514e1;"/><circle cx="85.916" cy="194.528" r="3.879" style="fill:#2514e1;"/><circle cx="8.336" cy="155.738" r="3.879" style="fill:#2514e1;"/><ellipse cx="62.317" cy="155.738" rx="3.554" ry="3.879" style="fill:#2514e1;"/><circle cx="31.61" cy="132.464" r="3.879" style="fill:#2514e1;"/><circle cx="85.916" cy="132.464" r="3.879" style="fill:#2514e1;"/></g><g id="Cube1" serif:id="Cube"><rect x="8.336" y="93.674" width="54.306" height="62.064" style="fill:none;stroke:#000;stroke-width:1px;"/><rect x="31.61" y="70.4" width="54.306" height="62.064" style="fill:none;stroke:#000;stroke-width:1px;"/><path d="M62.642,155.738l23.274,-23.274" style="fill:none;stroke:#000;stroke-width:1px;"/><path d="M62.642,93.674l23.274,-23.274" style="fill:none;stroke:#000;stroke-width:1px;"/><path d="M8.336,155.738l23.274,-23.274" style="fill:none;stroke:#000;stroke-width:1px;"/><path d="M8.336,93.674l23.274,-23.274" style="fill:none;stroke:#000;stroke-width:1px;"/><circle cx="47.508" cy="116.948" r="4.261" style="fill:#e1144a;"/><circle cx="8.336" cy="155.738" r="3.879" style="fill:#2514e1;"/><ellipse cx="62.317" cy="155.738" rx="3.554" ry="3.879" style="fill:#2514e1;"/><circle cx="31.61" cy="132.464" r="3.879" style="fill:#2514e1;"/><circle cx="85.916" cy="132.464" r="3.879" style="fill:#2514e1;"/><circle cx="8.336" cy="93.674" r="3.879" style="fill:#2514e1;"/><ellipse cx="62.317" cy="93.674" rx="3.554" ry="3.879" style="fill:#2514e1;"/><circle cx="31.61" cy="70.4" r="3.879" style="fill:#2514e1;"/><circle cx="85.916" cy="70.4" r="3.879" style="fill:#2514e1;"/></g><g id="Cube2" serif:id="Cube"><rect x="8.336" y="31.61" width="54.306" height="62.064" style="fill:none;stroke:#000;stroke-width:1px;"/><rect x="31.61" y="8.336" width="54.306" height="62.064" style="fill:none;stroke:#000;stroke-width:1px;"/><path d="M62.642,93.674l23.274,-23.274" style="fill:none;stroke:#000;stroke-width:1px;"/><path d="M62.642,31.61l23.274,-23.274" style="fill:none;stroke:#000;stroke-width:1px;"/><path d="M8.336,93.674l23.274,-23.274" style="fill:none;stroke:#000;stroke-width:1px;"/><path d="M8.336,31.61l23.274,-23.274" style="fill:none;stroke:#000;stroke-width:1px;"/><circle cx="47.508" cy="54.884" r="4.261" style="fill:#e1144a;"/><circle cx="8.336" cy="93.674" r="3.879" style="fill:#2514e1;"/><ellipse cx="62.317" cy="93.674" rx="3.554" ry="3.879" style="fill:#2514e1;"/><circle cx="31.61" cy="70.4" r="3.879" style="fill:#2514e1;"/><circle cx="85.916" cy="70.4" r="3.879" style="fill:#2514e1;"/><circle cx="8.336" cy="31.61" r="3.879" style="fill:#2514e1;"/><ellipse cx="62.317" cy="31.61" rx="3.554" ry="3.879" style="fill:#2514e1;"/><circle cx="31.61" cy="8.336" r="3.879" style="fill:#2514e1;"/><circle cx="85.916" cy="8.336" r="3.879" style="fill:#2514e1;"/></g><g id="Cube3" serif:id="Cube"><rect x="62.642" y="155.738" width="54.306" height="62.064" style="fill:none;stroke:#000;stroke-width:1px;"/><rect x="85.916" y="132.464" width="54.306" height="62.064" style="fill:none;stroke:#000;stroke-width:1px;"/><path d="M116.948,217.802l23.274,-23.274" style="fill:none;stroke:#000;stroke-width:1px;"/><path d="M116.948,155.738l23.274,-23.274" style="fill:none;stroke:#000;stroke-width:1px;"/><path d="M62.642,217.802l23.274,-23.274" style="fill:none;stroke:#000;stroke-width:1px;"/><path d="M62.642,155.738l23.274,-23.274" style="fill:none;stroke:#000;stroke-width:1px;"/><circle cx="101.814" cy="179.012" r="4.261" style="fill:#e1144a;"/><circle cx="62.642" cy="217.802" r="3.879" style="fill:#2514e1;"/><ellipse cx="116.623" cy="217.802" rx="3.554" ry="3.879" style="fill:#2514e1;"/><circle cx="85.916" cy="194.528" r="3.879" style="fill:#2514e1;"/><circle cx="140.222" cy="194.528" r="3.879" style="fill:#2514e1;"/><circle cx="62.642" cy="155.738" r="3.879" style="fill:#2514e1;"/><ellipse cx="116.623" cy="155.738" rx="3.554" ry="3.879" style="fill:#2514e1;"/><circle cx="85.916" cy="132.464" r="3.879" style="fill:#2514e1;"/><circle cx="140.222" cy="132.464" r="3.879" style="fill:#2514e1;"/></g><g id="Cube4" serif:id="Cube"><rect x="62.642" y="93.674" width="54.306" height="62.064" style="fill:none;stroke:#000;stroke-width:1px;"/><rect x="85.916" y="70.4" width="54.306" height="62.064" style="fill:none;stroke:#000;stroke-width:1px;"/><path d="M116.948,155.738l23.274,-23.274" style="fill:none;stroke:#000;stroke-width:1px;"/><path d="M116.948,93.674l23.274,-23.274" style="fill:none;stroke:#000;stroke-width:1px;"/><path d="M62.642,155.738l23.274,-23.274" style="fill:none;stroke:#000;stroke-width:1px;"/><path d="M62.642,93.674l23.274,-23.274" style="fill:none;stroke:#000;stroke-width:1px;"/><circle cx="101.814" cy="116.948" r="4.261" style="fill:#e1144a;"/><circle cx="62.642" cy="155.738" r="3.879" style="fill:#2514e1;"/><ellipse cx="116.623" cy="155.738" rx="3.554" ry="3.879" style="fill:#2514e1;"/><circle cx="85.916" cy="132.464" r="3.879" style="fill:#2514e1;"/><circle cx="140.222" cy="132.464" r="3.879" style="fill:#2514e1;"/><circle cx="62.642" cy="93.674" r="3.879" style="fill:#2514e1;"/><ellipse cx="116.623" cy="93.674" rx="3.554" ry="3.879" style="fill:#2514e1;"/><circle cx="85.916" cy="70.4" r="3.879" style="fill:#2514e1;"/><circle cx="140.222" cy="70.4" r="3.879" style="fill:#2514e1;"/></g><g id="Cube5" serif:id="Cube"><rect x="62.642" y="31.61" width="54.306" height="62.064" style="fill:none;stroke:#000;stroke-width:1px;"/><rect x="85.916" y="8.336" width="54.306" height="62.064" style="fill:none;stroke:#000;stroke-width:1px;"/><path d="M116.948,93.674l23.274,-23.274" style="fill:none;stroke:#000;stroke-width:1px;"/><path d="M116.948,31.61l23.274,-23.274" style="fill:none;stroke:#000;stroke-width:1px;"/><path d="M62.642,93.674l23.274,-23.274" style="fill:none;stroke:#000;stroke-width:1px;"/><path d="M62.642,31.61l23.274,-23.274" style="fill:none;stroke:#000;stroke-width:1px;"/><circle cx="101.814" cy="54.884" r="4.261" style="fill:#e1144a;"/><circle cx="62.642" cy="93.674" r="3.879" style="fill:#2514e1;"/><ellipse cx="116.623" cy="93.674" rx="3.554" ry="3.879" style="fill:#2514e1;"/><circle cx="85.916" cy="70.4" r="3.879" style="fill:#2514e1;"/><circle cx="140.222" cy="70.4" r="3.879" style="fill:#2514e1;"/><circle cx="62.642" cy="31.61" r="3.879" style="fill:#2514e1;"/><ellipse cx="116.623" cy="31.61" rx="3.554" ry="3.879" style="fill:#2514e1;"/><circle cx="85.916" cy="8.336" r="3.879" style="fill:#2514e1;"/><circle cx="140.222" cy="8.336" r="3.879" style="fill:#2514e1;"/></g></g><g id="Summation-Lines" serif:id="Summation Lines"><path d="M46.744,44.097l-0.915,6.526l-4.673,-4.648l5.588,-1.878Z"/><path d="M31.61,8.336c0,0 9.06,26.945 12.716,37.818" style="fill:none;stroke:#000;stroke-width:1.96px;stroke-dasharray:3.93,3.93,3.93,3.93,3.93,0;"/><path d="M39.764,47.433l3.483,5.595l-6.565,-0.57l3.082,-5.025Z"/><path d="M8.336,31.61c0,0 21.713,13.321 30.892,18.952" style="fill:none;stroke:#000;stroke-width:1.96px;stroke-dasharray:3.93,3.93,3.93,3.93,3.93,0;"/><path d="M55.578,48.091l-5.663,3.372l0.7,-6.553l4.963,3.181Z"/><path d="M62.642,31.61c0,0 -6.468,10.09 -10.182,15.883" style="fill:none;stroke:#000;stroke-width:1.96px;stroke-dasharray:3.93,3.93,3.93,3.93,3.93,0;"/><path d="M38.072,59.789l6.254,-2.077l-2.091,6.25l-4.163,-4.173Z"/><path d="M31.61,70.4c0,0 5.61,-5.598 9.378,-9.357" style="fill:none;stroke:#000;stroke-width:1.96px;stroke-dasharray:3.93,3.93,3.93,3.93,3.93,0;"/><path d="M38.073,59.794l6.253,-2.082l-2.086,6.252l-4.167,-4.17Z"/><path d="M8.336,93.674c0,0 23.734,-23.715 32.654,-32.628" style="fill:none;stroke:#000;stroke-width:1.96px;stroke-dasharray:3.93,3.93,3.93,3.93,3.93,0;"/><path d="M48.575,65.317l0.634,-6.559l4.868,4.443l-5.502,2.116Z"/><path d="M62.642,93.674c0,0 -8.129,-21.13 -11.739,-30.515" style="fill:none;stroke:#000;stroke-width:1.96px;stroke-dasharray:3.93,3.93,3.93,3.93,3.93,0;"/><path d="M55.757,61.317l-4.35,-4.951l6.57,-0.509l-2.22,5.46Z"/><path d="M85.916,70.4c0,0 -20.856,-8.481 -30.141,-12.257" style="fill:none;stroke:#000;stroke-width:1.96px;stroke-dasharray:3.93,3.93,3.93,3.93,3.93,0;"/><path d="M56.36,49.229l-6.01,2.705l1.442,-6.431l4.568,3.726Z"/><path d="M85.916,8.336c0,0 -24.029,29.455 -32.585,39.944" style="fill:none;stroke:#000;stroke-width:1.96px;stroke-dasharray:3.93,3.93,3.93,3.93,3.93,0;"/></g></svg>