<?xml version="1.0" encoding="UTF-8" standalone="no"?>
<!DOCTYPE svg PUBLIC "-//W3C//DTD SVG 1.1//EN"
 "http://www.w3.org/Graphics/SVG/1.1/DTD/svg11.dtd">
<!-- Generated by graphviz version 2.40.1 (20161225.0304)
 -->
<!-- Title: classes_dynamo0p3 Pages: 1 -->
<svg width="515pt" height="1299pt"
 viewBox="0.00 0.00 514.50 1299.00" xmlns="http://www.w3.org/2000/svg" xmlns:xlink="http://www.w3.org/1999/xlink">
<g id="graph0" class="graph" transform="scale(1 1) rotate(0) translate(4 1295)">
<title>classes_dynamo0p3</title>
<polygon fill="#ffffff" stroke="transparent" points="-4,4 -4,-1295 510.5,-1295 510.5,4 -4,4"/>
<!-- 12 -->
<g id="node1" class="node">
<title>12</title>
<polygon fill="none" stroke="#000000" points="168.5,-122.5 168.5,-341.5 341.5,-341.5 341.5,-122.5 168.5,-122.5"/>
<text text-anchor="middle" x="255" y="-326.3" font-family="Times,serif" font-size="14.00" fill="#000000">DynInvoke</text>
<polyline fill="none" stroke="#000000" points="168.5,-318.5 341.5,-318.5 "/>
<text text-anchor="start" x="176.5" y="-303.3" font-family="Times,serif" font-size="14.00" fill="#000000">cma_ops</text>
<text text-anchor="start" x="176.5" y="-288.3" font-family="Times,serif" font-size="14.00" fill="#000000">dofmaps</text>
<text text-anchor="start" x="176.5" y="-273.3" font-family="Times,serif" font-size="14.00" fill="#000000">evaluators</text>
<text text-anchor="start" x="176.5" y="-258.3" font-family="Times,serif" font-size="14.00" fill="#000000">iterate_over_dofs_only</text>
<text text-anchor="start" x="176.5" y="-243.3" font-family="Times,serif" font-size="14.00" fill="#000000">meshes</text>
<text text-anchor="start" x="176.5" y="-228.3" font-family="Times,serif" font-size="14.00" fill="#000000">stencil</text>
<polyline fill="none" stroke="#000000" points="168.5,-220.5 341.5,-220.5 "/>
<text text-anchor="start" x="176.5" y="-205.3" font-family="Times,serif" font-size="14.00" fill="#000000">arg_for_funcspace()</text>
<text text-anchor="start" x="176.5" y="-190.3" font-family="Times,serif" font-size="14.00" fill="#000000">field_on_space()</text>
<text text-anchor="start" x="176.5" y="-175.3" font-family="Times,serif" font-size="14.00" fill="#000000">gen_code()</text>
<text text-anchor="start" x="176.5" y="-160.3" font-family="Times,serif" font-size="14.00" fill="#000000">is_coloured()</text>
<text text-anchor="start" x="176.5" y="-145.3" font-family="Times,serif" font-size="14.00" fill="#000000">unique_fss()</text>
<text text-anchor="start" x="176.5" y="-130.3" font-family="Times,serif" font-size="14.00" fill="#000000">unique_proxy_declarations()</text>
</g>
<!-- 26 -->
<g id="node3" class="node">
<title>26</title>
<polygon fill="none" stroke="#000000" points="49.5,-648 49.5,-718 156.5,-718 156.5,-648 49.5,-648"/>
<text text-anchor="middle" x="103" y="-702.8" font-family="Times,serif" font-size="14.00" fill="#000000">DynamoInvokes</text>
<polyline fill="none" stroke="#000000" points="49.5,-695 156.5,-695 "/>
<polyline fill="none" stroke="#000000" points="49.5,-671 156.5,-671 "/>
<text text-anchor="middle" x="103" y="-655.8" font-family="Times,serif" font-size="14.00" fill="#000000"> </text>
</g>
<!-- 12&#45;&gt;26 -->
<g id="edge5" class="edge">
<title>12&#45;&gt;26</title>
<path fill="none" stroke="#000000" d="M188.0602,-341.6441C179.4631,-358.462 171.433,-375.9185 165,-393 133.9794,-475.3691 116.7407,-577.0528 108.7105,-635.522"/>
<polygon fill="#000000" stroke="#000000" points="108.6768,-635.7753 111.8482,-642.2516 107.0898,-647.6699 103.9184,-641.1936 108.6768,-635.7753"/>
<text text-anchor="middle" x="201.5" y="-363.8" font-family="Times,serif" font-size="14.00" fill="#00ff00">_0_to_n</text>
</g>
<!-- 36 -->
<g id="node6" class="node">
<title>36</title>
<polygon fill="#d3d3d3" stroke="#000000" points="174.5,-588.5 174.5,-777.5 335.5,-777.5 335.5,-588.5 174.5,-588.5"/>
<text text-anchor="middle" x="255" y="-762.3" font-family="Times,serif" font-size="14.00" fill="#000000">Invoke</text>
<polyline fill="none" stroke="#000000" points="174.5,-754.5 335.5,-754.5 "/>
<text text-anchor="start" x="182.5" y="-739.3" font-family="Times,serif" font-size="14.00" fill="#000000">alg_unique_args</text>
<text text-anchor="start" x="182.5" y="-724.3" font-family="Times,serif" font-size="14.00" fill="#000000">name</text>
<text text-anchor="start" x="182.5" y="-709.3" font-family="Times,serif" font-size="14.00" fill="#000000">psy_unique_var_names</text>
<text text-anchor="start" x="182.5" y="-694.3" font-family="Times,serif" font-size="14.00" fill="#000000">psy_unique_vars</text>
<text text-anchor="start" x="182.5" y="-679.3" font-family="Times,serif" font-size="14.00" fill="#000000">schedule</text>
<polyline fill="none" stroke="#000000" points="174.5,-671.5 335.5,-671.5 "/>
<text text-anchor="start" x="182.5" y="-656.3" font-family="Times,serif" font-size="14.00" fill="#000000">first_access()</text>
<text text-anchor="start" x="182.5" y="-641.3" font-family="Times,serif" font-size="14.00" fill="#000000">gen()</text>
<text text-anchor="start" x="182.5" y="-626.3" font-family="Times,serif" font-size="14.00" fill="#000000">gen_code()</text>
<text text-anchor="start" x="182.5" y="-611.3" font-family="Times,serif" font-size="14.00" fill="#000000">unique_declarations()</text>
<text text-anchor="start" x="182.5" y="-596.3" font-family="Times,serif" font-size="14.00" fill="#000000">unique_declns_by_intent()</text>
</g>
<!-- 12&#45;&gt;36 -->
<g id="edge4" class="edge">
<title>12&#45;&gt;36</title>
<path fill="none" stroke="#000000" d="M255,-341.7503C255,-413.6953 255,-507.207 255,-578.1441"/>
<polygon fill="none" stroke="#000000" points="251.5001,-578.4411 255,-588.4411 258.5001,-578.4412 251.5001,-578.4411"/>
</g>
<!-- 24 -->
<g id="node2" class="node">
<title>24</title>
<polygon fill="none" stroke="#000000" points="297.5,-.5 297.5,-70.5 386.5,-70.5 386.5,-.5 297.5,-.5"/>
<text text-anchor="middle" x="342" y="-55.3" font-family="Times,serif" font-size="14.00" fill="#000000">DynSchedule</text>
<polyline fill="none" stroke="#000000" points="297.5,-47.5 386.5,-47.5 "/>
<polyline fill="none" stroke="#000000" points="297.5,-23.5 386.5,-23.5 "/>
<text text-anchor="start" x="305.5" y="-8.3" font-family="Times,serif" font-size="14.00" fill="#000000">view()</text>
</g>
<!-- 24&#45;&gt;12 -->
<g id="edge7" class="edge">
<title>24&#45;&gt;12</title>
<path fill="none" stroke="#000000" d="M317.4707,-70.5039C313.721,-76.5351 310.08,-82.8462 307,-89 303.4253,-96.1423 299.9696,-103.5922 296.6547,-111.1774"/>
<polygon fill="#000000" stroke="#000000" points="296.5931,-111.3225 297.9288,-118.4088 291.9013,-122.3672 290.5656,-115.2809 296.5931,-111.3225"/>
<text text-anchor="middle" x="334.5" y="-92.8" font-family="Times,serif" font-size="14.00" fill="#00ff00">_schedule</text>
</g>
<!-- 46 -->
<g id="node8" class="node">
<title>46</title>
<polygon fill="#d3d3d3" stroke="#000000" points="372.5,-167.5 372.5,-296.5 463.5,-296.5 463.5,-167.5 372.5,-167.5"/>
<text text-anchor="middle" x="418" y="-281.3" font-family="Times,serif" font-size="14.00" fill="#000000">Schedule</text>
<polyline fill="none" stroke="#000000" points="372.5,-273.5 463.5,-273.5 "/>
<text text-anchor="start" x="380.5" y="-258.3" font-family="Times,serif" font-size="14.00" fill="#000000">coloured_text</text>
<text text-anchor="start" x="380.5" y="-243.3" font-family="Times,serif" font-size="14.00" fill="#000000">dag_name</text>
<text text-anchor="start" x="380.5" y="-228.3" font-family="Times,serif" font-size="14.00" fill="#000000">invoke</text>
<text text-anchor="start" x="380.5" y="-213.3" font-family="Times,serif" font-size="14.00" fill="#000000">opencl</text>
<polyline fill="none" stroke="#000000" points="372.5,-205.5 463.5,-205.5 "/>
<text text-anchor="start" x="380.5" y="-190.3" font-family="Times,serif" font-size="14.00" fill="#000000">gen_code()</text>
<text text-anchor="start" x="380.5" y="-175.3" font-family="Times,serif" font-size="14.00" fill="#000000">view()</text>
</g>
<!-- 24&#45;&gt;46 -->
<g id="edge6" class="edge">
<title>24&#45;&gt;46</title>
<path fill="none" stroke="#000000" d="M358.2456,-70.7403C360.9127,-76.7985 363.59,-83.0566 366,-89 374.9497,-111.0715 384.0452,-135.3331 392.0738,-157.5047"/>
<polygon fill="none" stroke="#000000" points="388.8828,-158.9739 395.564,-167.1965 395.4687,-156.6021 388.8828,-158.9739"/>
</g>
<!-- 27 -->
<g id="node4" class="node">
<title>27</title>
<polygon fill="none" stroke="#000000" points="0,-1047 0,-1131 86,-1131 86,-1047 0,-1047"/>
<text text-anchor="middle" x="43" y="-1115.8" font-family="Times,serif" font-size="14.00" fill="#000000">DynamoPSy</text>
<polyline fill="none" stroke="#000000" points="0,-1108 86,-1108 "/>
<text text-anchor="start" x="8" y="-1092.8" font-family="Times,serif" font-size="14.00" fill="#000000">gen</text>
<text text-anchor="start" x="8" y="-1077.8" font-family="Times,serif" font-size="14.00" fill="#000000">name</text>
<polyline fill="none" stroke="#000000" points="0,-1070 86,-1070 "/>
<text text-anchor="middle" x="43" y="-1054.8" font-family="Times,serif" font-size="14.00" fill="#000000"> </text>
</g>
<!-- 26&#45;&gt;27 -->
<g id="edge3" class="edge">
<title>26&#45;&gt;27</title>
<path fill="none" stroke="#000000" d="M97.7804,-718.3196C87.2638,-789.4816 63.4682,-950.4988 50.985,-1034.9685"/>
<polygon fill="#000000" stroke="#000000" points="50.9826,-1034.9849 54.0624,-1041.5052 49.2282,-1046.856 46.1484,-1040.3356 50.9826,-1034.9849"/>
<text text-anchor="middle" x="80.5" y="-994.8" font-family="Times,serif" font-size="14.00" fill="#00ff00">_invokes</text>
</g>
<!-- 37 -->
<g id="node7" class="node">
<title>37</title>
<polygon fill="#d3d3d3" stroke="#000000" points="104,-1024.5 104,-1153.5 220,-1153.5 220,-1024.5 104,-1024.5"/>
<text text-anchor="middle" x="162" y="-1138.3" font-family="Times,serif" font-size="14.00" fill="#000000">Invokes</text>
<polyline fill="none" stroke="#000000" points="104,-1130.5 220,-1130.5 "/>
<text text-anchor="start" x="112" y="-1115.3" font-family="Times,serif" font-size="14.00" fill="#000000">invoke_list : list</text>
<text text-anchor="start" x="112" y="-1100.3" font-family="Times,serif" font-size="14.00" fill="#000000">invoke_map : dict</text>
<text text-anchor="start" x="112" y="-1085.3" font-family="Times,serif" font-size="14.00" fill="#000000">names</text>
<polyline fill="none" stroke="#000000" points="104,-1077.5 220,-1077.5 "/>
<text text-anchor="start" x="112" y="-1062.3" font-family="Times,serif" font-size="14.00" fill="#000000">gen_code()</text>
<text text-anchor="start" x="112" y="-1047.3" font-family="Times,serif" font-size="14.00" fill="#000000">gen_ocl_init()</text>
<text text-anchor="start" x="112" y="-1032.3" font-family="Times,serif" font-size="14.00" fill="#000000">get()</text>
</g>
<!-- 26&#45;&gt;37 -->
<g id="edge2" class="edge">
<title>26&#45;&gt;37</title>
<path fill="none" stroke="#000000" d="M108.1327,-718.3196C117.689,-784.0805 138.3963,-926.5743 151.1714,-1014.4848"/>
<polygon fill="none" stroke="#000000" points="147.7102,-1015.0055 152.612,-1024.3982 154.6375,-1013.9988 147.7102,-1015.0055"/>
</g>
<!-- 45 -->
<g id="node9" class="node">
<title>45</title>
<polygon fill="#d3d3d3" stroke="#000000" points="13.5,-1191.5 13.5,-1290.5 72.5,-1290.5 72.5,-1191.5 13.5,-1191.5"/>
<text text-anchor="middle" x="43" y="-1275.3" font-family="Times,serif" font-size="14.00" fill="#000000">PSy</text>
<polyline fill="none" stroke="#000000" points="13.5,-1267.5 72.5,-1267.5 "/>
<text text-anchor="start" x="21.5" y="-1252.3" font-family="Times,serif" font-size="14.00" fill="#000000">gen</text>
<text text-anchor="start" x="21.5" y="-1237.3" font-family="Times,serif" font-size="14.00" fill="#000000">invokes</text>
<text text-anchor="start" x="21.5" y="-1222.3" font-family="Times,serif" font-size="14.00" fill="#000000">name</text>
<polyline fill="none" stroke="#000000" points="13.5,-1214.5 72.5,-1214.5 "/>
<text text-anchor="start" x="21.5" y="-1199.3" font-family="Times,serif" font-size="14.00" fill="#000000">inline()</text>
</g>
<!-- 27&#45;&gt;45 -->
<g id="edge1" class="edge">
<title>27&#45;&gt;45</title>
<path fill="none" stroke="#000000" d="M43,-1131.3405C43,-1146.7624 43,-1164.5016 43,-1181.1556"/>
<polygon fill="none" stroke="#000000" points="39.5001,-1181.3544 43,-1191.3544 46.5001,-1181.3545 39.5001,-1181.3544"/>
</g>
<!-- 44 -->
<g id="node5" class="node">
<title>44</title>
<polygon fill="none" stroke="#000000" points="353.5,-393.5 353.5,-972.5 506.5,-972.5 506.5,-393.5 353.5,-393.5"/>
<text text-anchor="middle" x="430" y="-957.3" font-family="Times,serif" font-size="14.00" fill="#000000">Node</text>
<polyline fill="none" stroke="#000000" points="353.5,-949.5 506.5,-949.5 "/>
<text text-anchor="start" x="361.5" y="-934.3" font-family="Times,serif" font-size="14.00" fill="#000000">START_DEPTH : int</text>
<text text-anchor="start" x="361.5" y="-919.3" font-family="Times,serif" font-size="14.00" fill="#000000">START_POSITION : int</text>
<text text-anchor="start" x="361.5" y="-904.3" font-family="Times,serif" font-size="14.00" fill="#000000">abs_position</text>
<text text-anchor="start" x="361.5" y="-889.3" font-family="Times,serif" font-size="14.00" fill="#000000">args</text>
<text text-anchor="start" x="361.5" y="-874.3" font-family="Times,serif" font-size="14.00" fill="#000000">children</text>
<text text-anchor="start" x="361.5" y="-859.3" font-family="Times,serif" font-size="14.00" fill="#000000">dag_name</text>
<text text-anchor="start" x="361.5" y="-844.3" font-family="Times,serif" font-size="14.00" fill="#000000">depth</text>
<text text-anchor="start" x="361.5" y="-829.3" font-family="Times,serif" font-size="14.00" fill="#000000">following_calls</text>
<text text-anchor="start" x="361.5" y="-814.3" font-family="Times,serif" font-size="14.00" fill="#000000">parent</text>
<text text-anchor="start" x="361.5" y="-799.3" font-family="Times,serif" font-size="14.00" fill="#000000">position</text>
<text text-anchor="start" x="361.5" y="-784.3" font-family="Times,serif" font-size="14.00" fill="#000000">preceding_calls</text>
<text text-anchor="start" x="361.5" y="-769.3" font-family="Times,serif" font-size="14.00" fill="#000000">root</text>
<polyline fill="none" stroke="#000000" points="353.5,-761.5 506.5,-761.5 "/>
<text text-anchor="start" x="361.5" y="-746.3" font-family="Times,serif" font-size="14.00" fill="#000000">addchild()</text>
<text text-anchor="start" x="361.5" y="-731.3" font-family="Times,serif" font-size="14.00" fill="#000000">ancestor()</text>
<text text-anchor="start" x="361.5" y="-716.3" font-family="Times,serif" font-size="14.00" fill="#000000">backward_dependence()</text>
<text text-anchor="start" x="361.5" y="-701.3" font-family="Times,serif" font-size="14.00" fill="#000000">calls()</text>
<text text-anchor="start" x="361.5" y="-686.3" font-family="Times,serif" font-size="14.00" fill="#000000">dag()</text>
<text text-anchor="start" x="361.5" y="-671.3" font-family="Times,serif" font-size="14.00" fill="#000000">dag_gen()</text>
<text text-anchor="start" x="361.5" y="-656.3" font-family="Times,serif" font-size="14.00" fill="#000000">following()</text>
<text text-anchor="start" x="361.5" y="-641.3" font-family="Times,serif" font-size="14.00" fill="#000000">forward_dependence()</text>
<text text-anchor="start" x="361.5" y="-626.3" font-family="Times,serif" font-size="14.00" fill="#000000">gen_c_code()</text>
<text text-anchor="start" x="361.5" y="-611.3" font-family="Times,serif" font-size="14.00" fill="#000000">gen_code()</text>
<text text-anchor="start" x="361.5" y="-596.3" font-family="Times,serif" font-size="14.00" fill="#000000">indent()</text>
<text text-anchor="start" x="361.5" y="-581.3" font-family="Times,serif" font-size="14.00" fill="#000000">is_openmp_parallel()</text>
<text text-anchor="start" x="361.5" y="-566.3" font-family="Times,serif" font-size="14.00" fill="#000000">is_valid_location()</text>
<text text-anchor="start" x="361.5" y="-551.3" font-family="Times,serif" font-size="14.00" fill="#000000">kern_calls()</text>
<text text-anchor="start" x="361.5" y="-536.3" font-family="Times,serif" font-size="14.00" fill="#000000">list()</text>
<text text-anchor="start" x="361.5" y="-521.3" font-family="Times,serif" font-size="14.00" fill="#000000">list_to_string()</text>
<text text-anchor="start" x="361.5" y="-506.3" font-family="Times,serif" font-size="14.00" fill="#000000">loops()</text>
<text text-anchor="start" x="361.5" y="-491.3" font-family="Times,serif" font-size="14.00" fill="#000000">preceding()</text>
<text text-anchor="start" x="361.5" y="-476.3" font-family="Times,serif" font-size="14.00" fill="#000000">reductions()</text>
<text text-anchor="start" x="361.5" y="-461.3" font-family="Times,serif" font-size="14.00" fill="#000000">sameParent()</text>
<text text-anchor="start" x="361.5" y="-446.3" font-family="Times,serif" font-size="14.00" fill="#000000">sameRoot()</text>
<text text-anchor="start" x="361.5" y="-431.3" font-family="Times,serif" font-size="14.00" fill="#000000">update()</text>
<text text-anchor="start" x="361.5" y="-416.3" font-family="Times,serif" font-size="14.00" fill="#000000">view()</text>
<text text-anchor="start" x="361.5" y="-401.3" font-family="Times,serif" font-size="14.00" fill="#000000">walk()</text>
</g>
<!-- 46&#45;&gt;44 -->
<g id="edge8" class="edge">
<title>46&#45;&gt;44</title>
<path fill="none" stroke="#000000" d="M419.7193,-296.6173C420.3742,-321.2288 421.171,-351.1754 422.0282,-383.3925"/>
<polygon fill="none" stroke="#000000" points="418.5312,-383.5571 422.2961,-393.4605 425.5287,-383.3709 418.5312,-383.5571"/>
</g>
</g>
</svg>
