<?xml version="1.0" encoding="UTF-8" standalone="no"?>
<!DOCTYPE svg PUBLIC "-//W3C//DTD SVG 1.1//EN"
 "http://www.w3.org/Graphics/SVG/1.1/DTD/svg11.dtd">
<!-- Generated by graphviz version 2.40.1 (20161225.0304)
 -->
<!-- Title: classes_dynamo0p3 Pages: 1 -->
<svg width="508pt" height="1033pt"
 viewBox="0.00 0.00 507.50 1033.00" xmlns="http://www.w3.org/2000/svg" xmlns:xlink="http://www.w3.org/1999/xlink">
<g id="graph0" class="graph" transform="scale(1 1) rotate(0) translate(4 1029)">
<title>classes_dynamo0p3</title>
<polygon fill="#ffffff" stroke="transparent" points="-4,4 -4,-1029 503.5,-1029 503.5,4 -4,4"/>
<!-- 18 -->
<g id="node1" class="node">
<title>18</title>
<polygon fill="none" stroke="#000000" points="181.5,-122.5 181.5,-267.5 354.5,-267.5 354.5,-122.5 181.5,-122.5"/>
<text text-anchor="middle" x="268" y="-252.3" font-family="Times,serif" font-size="14.00" fill="#000000">DynInvoke</text>
<polyline fill="none" stroke="#000000" points="181.5,-244.5 354.5,-244.5 "/>
<polyline fill="none" stroke="#000000" points="181.5,-220.5 354.5,-220.5 "/>
<text text-anchor="start" x="189.5" y="-205.3" font-family="Times,serif" font-size="14.00" fill="#000000">arg_for_funcspace()</text>
<text text-anchor="start" x="189.5" y="-190.3" font-family="Times,serif" font-size="14.00" fill="#000000">field_on_space()</text>
<text text-anchor="start" x="189.5" y="-175.3" font-family="Times,serif" font-size="14.00" fill="#000000">gen_code()</text>
<text text-anchor="start" x="189.5" y="-160.3" font-family="Times,serif" font-size="14.00" fill="#000000">is_coloured()</text>
<text text-anchor="start" x="189.5" y="-145.3" font-family="Times,serif" font-size="14.00" fill="#000000">unique_fss()</text>
<text text-anchor="start" x="189.5" y="-130.3" font-family="Times,serif" font-size="14.00" fill="#000000">unique_proxy_declarations()</text>
</g>
<!-- 32 -->
<g id="node3" class="node">
<title>32</title>
<polygon fill="none" stroke="#000000" points="65.5,-349.5 65.5,-419.5 172.5,-419.5 172.5,-349.5 65.5,-349.5"/>
<text text-anchor="middle" x="119" y="-404.3" font-family="Times,serif" font-size="14.00" fill="#000000">DynamoInvokes</text>
<polyline fill="none" stroke="#000000" points="65.5,-396.5 172.5,-396.5 "/>
<polyline fill="none" stroke="#000000" points="65.5,-372.5 172.5,-372.5 "/>
<text text-anchor="middle" x="119" y="-357.3" font-family="Times,serif" font-size="14.00" fill="#000000"> </text>
</g>
<!-- 18&#45;&gt;32 -->
<g id="edge7" class="edge">
<title>18&#45;&gt;32</title>
<path fill="none" stroke="#000000" d="M210.8188,-267.7237C191.7457,-291.9811 171.0694,-318.2776 154.1751,-339.7639"/>
<polygon fill="#000000" stroke="#000000" points="154.1155,-339.8397 153.5514,-347.0287 146.6983,-349.2729 147.2625,-342.0839 154.1155,-339.8397"/>
<text text-anchor="middle" x="216.5" y="-289.8" font-family="Times,serif" font-size="14.00" fill="#00ff00">_0_to_n</text>
</g>
<!-- 43 -->
<g id="node5" class="node">
<title>43</title>
<polygon fill="#faebd7" stroke="#000000" points="190.5,-319.5 190.5,-449.5 351.5,-449.5 351.5,-319.5 190.5,-319.5"/>
<text text-anchor="middle" x="271" y="-434.3" font-family="Times,serif" font-size="14.00" fill="#000000">Invoke</text>
<polyline fill="none" stroke="#000000" points="190.5,-426.5 351.5,-426.5 "/>
<polyline fill="none" stroke="#000000" points="190.5,-402.5 351.5,-402.5 "/>
<text text-anchor="start" x="198.5" y="-387.3" font-family="Times,serif" font-size="14.00" fill="#000000">first_access()</text>
<text text-anchor="start" x="198.5" y="-372.3" font-family="Times,serif" font-size="14.00" fill="#000000">gen()</text>
<text text-anchor="start" x="198.5" y="-357.3" font-family="Times,serif" font-size="14.00" fill="#000000">gen_code()</text>
<text text-anchor="start" x="198.5" y="-342.3" font-family="Times,serif" font-size="14.00" fill="#000000">unique_declarations()</text>
<text text-anchor="start" x="198.5" y="-327.3" font-family="Times,serif" font-size="14.00" fill="#000000">unique_declns_by_intent()</text>
</g>
<!-- 18&#45;&gt;43 -->
<g id="edge1" class="edge">
<title>18&#45;&gt;43</title>
<path fill="none" stroke="#000000" d="M269.1513,-267.7237C269.3659,-281.281 269.5906,-295.4753 269.8065,-309.1108"/>
<polygon fill="none" stroke="#000000" points="266.3116,-309.4658 269.9695,-319.4092 273.3107,-309.355 266.3116,-309.4658"/>
</g>
<!-- 22 -->
<g id="node2" class="node">
<title>22</title>
<polygon fill="none" stroke="#000000" points="282.5,-.5 282.5,-70.5 409.5,-70.5 409.5,-.5 282.5,-.5"/>
<text text-anchor="middle" x="346" y="-55.3" font-family="Times,serif" font-size="14.00" fill="#000000">DynInvokeSchedule</text>
<polyline fill="none" stroke="#000000" points="282.5,-47.5 409.5,-47.5 "/>
<polyline fill="none" stroke="#000000" points="282.5,-23.5 409.5,-23.5 "/>
<text text-anchor="start" x="290.5" y="-8.3" font-family="Times,serif" font-size="14.00" fill="#000000">view()</text>
</g>
<!-- 22&#45;&gt;18 -->
<g id="edge8" class="edge">
<title>22&#45;&gt;18</title>
<path fill="none" stroke="#000000" d="M328.8826,-70.503C322.9147,-82.7065 315.9361,-96.9769 308.8753,-111.4153"/>
<polygon fill="#000000" stroke="#000000" points="308.747,-111.6777 309.7045,-118.8249 303.4752,-122.4577 302.5178,-115.3104 308.747,-111.6777"/>
<text text-anchor="middle" x="346.5" y="-92.8" font-family="Times,serif" font-size="14.00" fill="#00ff00">_schedule</text>
</g>
<!-- 44 -->
<g id="node6" class="node">
<title>44</title>
<polygon fill="none" stroke="#000000" points="373,-152.5 373,-237.5 477,-237.5 477,-152.5 373,-152.5"/>
<text text-anchor="middle" x="425" y="-222.3" font-family="Times,serif" font-size="14.00" fill="#000000">InvokeSchedule</text>
<polyline fill="none" stroke="#000000" points="373,-214.5 477,-214.5 "/>
<polyline fill="none" stroke="#000000" points="373,-190.5 477,-190.5 "/>
<text text-anchor="start" x="381" y="-175.3" font-family="Times,serif" font-size="14.00" fill="#000000">gen_code()</text>
<text text-anchor="start" x="381" y="-160.3" font-family="Times,serif" font-size="14.00" fill="#000000">view()</text>
</g>
<!-- 22&#45;&gt;44 -->
<g id="edge2" class="edge">
<title>22&#45;&gt;44</title>
<path fill="none" stroke="#000000" d="M367.7897,-70.5524C371.331,-76.6323 374.8623,-82.9464 378,-89 386.9496,-106.2665 395.8379,-125.5971 403.4367,-142.9747"/>
<polygon fill="none" stroke="#000000" points="400.3332,-144.6159 407.5178,-152.4026 406.7572,-141.8351 400.3332,-144.6159"/>
</g>
<!-- 33 -->
<g id="node4" class="node">
<title>33</title>
<polygon fill="none" stroke="#000000" points="0,-674 0,-744 86,-744 86,-674 0,-674"/>
<text text-anchor="middle" x="43" y="-728.8" font-family="Times,serif" font-size="14.00" fill="#000000">DynamoPSy</text>
<polyline fill="none" stroke="#000000" points="0,-721 86,-721 "/>
<polyline fill="none" stroke="#000000" points="0,-697 86,-697 "/>
<text text-anchor="middle" x="43" y="-681.8" font-family="Times,serif" font-size="14.00" fill="#000000"> </text>
</g>
<!-- 32&#45;&gt;33 -->
<g id="edge9" class="edge">
<title>32&#45;&gt;33</title>
<path fill="none" stroke="#000000" d="M96.8157,-419.8625C88.7237,-434.2905 80.2736,-451.4508 75,-468 54.2517,-533.1106 46.9481,-612.2605 44.3822,-661.648"/>
<polygon fill="#000000" stroke="#000000" points="44.3728,-661.8529 48.0891,-668.0326 43.8141,-673.8399 40.0978,-667.6602 44.3728,-661.8529"/>
<text text-anchor="middle" x="99.5" y="-471.8" font-family="Times,serif" font-size="14.00" fill="#00ff00">_invokes</text>
</g>
<!-- 45 -->
<g id="node7" class="node">
<title>45</title>
<polygon fill="#faebd7" stroke="#000000" points="104.5,-659 104.5,-759 197.5,-759 197.5,-659 104.5,-659"/>
<text text-anchor="middle" x="151" y="-743.8" font-family="Times,serif" font-size="14.00" fill="#000000">Invokes</text>
<polyline fill="none" stroke="#000000" points="104.5,-736 197.5,-736 "/>
<polyline fill="none" stroke="#000000" points="104.5,-712 197.5,-712 "/>
<text text-anchor="start" x="112.5" y="-696.8" font-family="Times,serif" font-size="14.00" fill="#000000">gen_code()</text>
<text text-anchor="start" x="112.5" y="-681.8" font-family="Times,serif" font-size="14.00" fill="#000000">gen_ocl_init()</text>
<text text-anchor="start" x="112.5" y="-666.8" font-family="Times,serif" font-size="14.00" fill="#000000">get()</text>
</g>
<!-- 32&#45;&gt;45 -->
<g id="edge3" class="edge">
<title>32&#45;&gt;45</title>
<path fill="none" stroke="#000000" d="M122.455,-419.5355C127.8659,-474.4059 138.4067,-581.2958 145.0543,-648.7069"/>
<polygon fill="none" stroke="#000000" points="141.5815,-649.1558 146.0461,-658.764 148.5477,-648.4687 141.5815,-649.1558"/>
</g>
<!-- 58 -->
<g id="node9" class="node">
<title>58</title>
<polygon fill="#faebd7" stroke="#000000" points="15,-954.5 15,-1024.5 71,-1024.5 71,-954.5 15,-954.5"/>
<text text-anchor="middle" x="43" y="-1009.3" font-family="Times,serif" font-size="14.00" fill="#000000">PSy</text>
<polyline fill="none" stroke="#000000" points="15,-1001.5 71,-1001.5 "/>
<polyline fill="none" stroke="#000000" points="15,-977.5 71,-977.5 "/>
<text text-anchor="start" x="23" y="-962.3" font-family="Times,serif" font-size="14.00" fill="#000000">inline()</text>
</g>
<!-- 33&#45;&gt;58 -->
<g id="edge4" class="edge">
<title>33&#45;&gt;58</title>
<path fill="none" stroke="#000000" d="M43,-744.2415C43,-794.8346 43,-888.0855 43,-943.8821"/>
<polygon fill="none" stroke="#000000" points="39.5001,-944.182 43,-954.182 46.5001,-944.1821 39.5001,-944.182"/>
</g>
<!-- 61 -->
<g id="node10" class="node">
<title>61</title>
<polygon fill="#faebd7" stroke="#000000" points="371.5,-334.5 371.5,-434.5 478.5,-434.5 478.5,-334.5 371.5,-334.5"/>
<text text-anchor="middle" x="425" y="-419.3" font-family="Times,serif" font-size="14.00" fill="#000000">Schedule</text>
<polyline fill="none" stroke="#000000" points="371.5,-411.5 478.5,-411.5 "/>
<polyline fill="none" stroke="#000000" points="371.5,-387.5 478.5,-387.5 "/>
<text text-anchor="start" x="379.5" y="-372.3" font-family="Times,serif" font-size="14.00" fill="#000000">tkinter_delete()</text>
<text text-anchor="start" x="379.5" y="-357.3" font-family="Times,serif" font-size="14.00" fill="#000000">tkinter_display()</text>
<text text-anchor="start" x="379.5" y="-342.3" font-family="Times,serif" font-size="14.00" fill="#000000">view()</text>
</g>
<!-- 44&#45;&gt;61 -->
<g id="edge5" class="edge">
<title>44&#45;&gt;61</title>
<path fill="none" stroke="#000000" d="M425,-237.5275C425,-263.0878 425,-296.0218 425,-324.233"/>
<polygon fill="none" stroke="#000000" points="421.5001,-324.3905 425,-334.3905 428.5001,-324.3906 421.5001,-324.3905"/>
</g>
<!-- 56 -->
<g id="node8" class="node">
<title>56</title>
<polygon fill="none" stroke="#000000" points="350.5,-501.5 350.5,-916.5 499.5,-916.5 499.5,-501.5 350.5,-501.5"/>
<text text-anchor="middle" x="425" y="-901.3" font-family="Times,serif" font-size="14.00" fill="#000000">Node</text>
<polyline fill="none" stroke="#000000" points="350.5,-893.5 499.5,-893.5 "/>
<polyline fill="none" stroke="#000000" points="350.5,-869.5 499.5,-869.5 "/>
<text text-anchor="start" x="358.5" y="-854.3" font-family="Times,serif" font-size="14.00" fill="#000000">addchild()</text>
<text text-anchor="start" x="358.5" y="-839.3" font-family="Times,serif" font-size="14.00" fill="#000000">ancestor()</text>
<text text-anchor="start" x="358.5" y="-824.3" font-family="Times,serif" font-size="14.00" fill="#000000">backward_dependence()</text>
<text text-anchor="start" x="358.5" y="-809.3" font-family="Times,serif" font-size="14.00" fill="#000000">calls()</text>
<text text-anchor="start" x="358.5" y="-794.3" font-family="Times,serif" font-size="14.00" fill="#000000">dag()</text>
<text text-anchor="start" x="358.5" y="-779.3" font-family="Times,serif" font-size="14.00" fill="#000000">dag_gen()</text>
<text text-anchor="start" x="358.5" y="-764.3" font-family="Times,serif" font-size="14.00" fill="#000000">following()</text>
<text text-anchor="start" x="358.5" y="-749.3" font-family="Times,serif" font-size="14.00" fill="#000000">forward_dependence()</text>
<text text-anchor="start" x="358.5" y="-734.3" font-family="Times,serif" font-size="14.00" fill="#000000">gen_c_code()</text>
<text text-anchor="start" x="358.5" y="-719.3" font-family="Times,serif" font-size="14.00" fill="#000000">gen_code()</text>
<text text-anchor="start" x="358.5" y="-704.3" font-family="Times,serif" font-size="14.00" fill="#000000">indent()</text>
<text text-anchor="start" x="358.5" y="-689.3" font-family="Times,serif" font-size="14.00" fill="#000000">is_openmp_parallel()</text>
<text text-anchor="start" x="358.5" y="-674.3" font-family="Times,serif" font-size="14.00" fill="#000000">is_valid_location()</text>
<text text-anchor="start" x="358.5" y="-659.3" font-family="Times,serif" font-size="14.00" fill="#000000">kern_calls()</text>
<text text-anchor="start" x="358.5" y="-644.3" font-family="Times,serif" font-size="14.00" fill="#000000">list()</text>
<text text-anchor="start" x="358.5" y="-629.3" font-family="Times,serif" font-size="14.00" fill="#000000">list_to_string()</text>
<text text-anchor="start" x="358.5" y="-614.3" font-family="Times,serif" font-size="14.00" fill="#000000">loops()</text>
<text text-anchor="start" x="358.5" y="-599.3" font-family="Times,serif" font-size="14.00" fill="#000000">preceding()</text>
<text text-anchor="start" x="358.5" y="-584.3" font-family="Times,serif" font-size="14.00" fill="#000000">reductions()</text>
<text text-anchor="start" x="358.5" y="-569.3" font-family="Times,serif" font-size="14.00" fill="#000000">sameParent()</text>
<text text-anchor="start" x="358.5" y="-554.3" font-family="Times,serif" font-size="14.00" fill="#000000">sameRoot()</text>
<text text-anchor="start" x="358.5" y="-539.3" font-family="Times,serif" font-size="14.00" fill="#000000">update()</text>
<text text-anchor="start" x="358.5" y="-524.3" font-family="Times,serif" font-size="14.00" fill="#000000">view()</text>
<text text-anchor="start" x="358.5" y="-509.3" font-family="Times,serif" font-size="14.00" fill="#000000">walk()</text>
</g>
<!-- 61&#45;&gt;56 -->
<g id="edge6" class="edge">
<title>61&#45;&gt;56</title>
<path fill="none" stroke="#000000" d="M425,-434.8471C425,-451.14 425,-470.3683 425,-490.9619"/>
<polygon fill="none" stroke="#000000" points="421.5001,-491.1742 425,-501.1742 428.5001,-491.1743 421.5001,-491.1742"/>
</g>
</g>
</svg>
