<?xml version="1.0" encoding="UTF-8" standalone="no"?>
<!DOCTYPE svg PUBLIC "-//W3C//DTD SVG 1.1//EN"
 "http://www.w3.org/Graphics/SVG/1.1/DTD/svg11.dtd">
<!-- Generated by graphviz version 2.40.1 (20161225.0304)
 -->
<!-- Title: classes_dynamo0p3 Pages: 1 -->
<svg width="518pt" height="1329pt"
 viewBox="0.00 0.00 517.50 1329.00" xmlns="http://www.w3.org/2000/svg" xmlns:xlink="http://www.w3.org/1999/xlink">
<g id="graph0" class="graph" transform="scale(1 1) rotate(0) translate(4 1325)">
<title>classes_dynamo0p3</title>
<polygon fill="#ffffff" stroke="transparent" points="-4,4 -4,-1325 513.5,-1325 513.5,4 -4,4"/>
<!-- 18 -->
<g id="node1" class="node">
<title>18</title>
<polygon fill="none" stroke="#000000" points="191.5,-122.5 191.5,-341.5 364.5,-341.5 364.5,-122.5 191.5,-122.5"/>
<text text-anchor="middle" x="278" y="-326.3" font-family="Times,serif" font-size="14.00" fill="#000000">DynInvoke</text>
<polyline fill="none" stroke="#000000" points="191.5,-318.5 364.5,-318.5 "/>
<text text-anchor="start" x="199.5" y="-303.3" font-family="Times,serif" font-size="14.00" fill="#000000">cma_ops</text>
<text text-anchor="start" x="199.5" y="-288.3" font-family="Times,serif" font-size="14.00" fill="#000000">dofmaps</text>
<text text-anchor="start" x="199.5" y="-273.3" font-family="Times,serif" font-size="14.00" fill="#000000">evaluators</text>
<text text-anchor="start" x="199.5" y="-258.3" font-family="Times,serif" font-size="14.00" fill="#000000">iterate_over_dofs_only</text>
<text text-anchor="start" x="199.5" y="-243.3" font-family="Times,serif" font-size="14.00" fill="#000000">meshes</text>
<text text-anchor="start" x="199.5" y="-228.3" font-family="Times,serif" font-size="14.00" fill="#000000">stencil</text>
<polyline fill="none" stroke="#000000" points="191.5,-220.5 364.5,-220.5 "/>
<text text-anchor="start" x="199.5" y="-205.3" font-family="Times,serif" font-size="14.00" fill="#000000">arg_for_funcspace()</text>
<text text-anchor="start" x="199.5" y="-190.3" font-family="Times,serif" font-size="14.00" fill="#000000">field_on_space()</text>
<text text-anchor="start" x="199.5" y="-175.3" font-family="Times,serif" font-size="14.00" fill="#000000">gen_code()</text>
<text text-anchor="start" x="199.5" y="-160.3" font-family="Times,serif" font-size="14.00" fill="#000000">is_coloured()</text>
<text text-anchor="start" x="199.5" y="-145.3" font-family="Times,serif" font-size="14.00" fill="#000000">unique_fss()</text>
<text text-anchor="start" x="199.5" y="-130.3" font-family="Times,serif" font-size="14.00" fill="#000000">unique_proxy_declarations()</text>
</g>
<!-- 32 -->
<g id="node3" class="node">
<title>32</title>
<polygon fill="none" stroke="#000000" points="75.5,-453 75.5,-523 182.5,-523 182.5,-453 75.5,-453"/>
<text text-anchor="middle" x="129" y="-507.8" font-family="Times,serif" font-size="14.00" fill="#000000">DynamoInvokes</text>
<polyline fill="none" stroke="#000000" points="75.5,-500 182.5,-500 "/>
<polyline fill="none" stroke="#000000" points="75.5,-476 182.5,-476 "/>
<text text-anchor="middle" x="129" y="-460.8" font-family="Times,serif" font-size="14.00" fill="#000000"> </text>
</g>
<!-- 18&#45;&gt;32 -->
<g id="edge7" class="edge">
<title>18&#45;&gt;32</title>
<path fill="none" stroke="#000000" d="M214.1622,-341.6811C193.6615,-376.9038 172.0609,-414.0162 155.7438,-442.051"/>
<polygon fill="#000000" stroke="#000000" points="155.5764,-442.3385 156.0153,-449.5363 149.54,-452.7098 149.1012,-445.512 155.5764,-442.3385"/>
<text text-anchor="middle" x="226.5" y="-363.8" font-family="Times,serif" font-size="14.00" fill="#00ff00">_0_to_n</text>
</g>
<!-- 43 -->
<g id="node5" class="node">
<title>43</title>
<polygon fill="#faebd7" stroke="#000000" points="200.5,-393.5 200.5,-582.5 361.5,-582.5 361.5,-393.5 200.5,-393.5"/>
<text text-anchor="middle" x="281" y="-567.3" font-family="Times,serif" font-size="14.00" fill="#000000">Invoke</text>
<polyline fill="none" stroke="#000000" points="200.5,-559.5 361.5,-559.5 "/>
<text text-anchor="start" x="208.5" y="-544.3" font-family="Times,serif" font-size="14.00" fill="#000000">alg_unique_args</text>
<text text-anchor="start" x="208.5" y="-529.3" font-family="Times,serif" font-size="14.00" fill="#000000">name</text>
<text text-anchor="start" x="208.5" y="-514.3" font-family="Times,serif" font-size="14.00" fill="#000000">psy_unique_var_names</text>
<text text-anchor="start" x="208.5" y="-499.3" font-family="Times,serif" font-size="14.00" fill="#000000">psy_unique_vars</text>
<text text-anchor="start" x="208.5" y="-484.3" font-family="Times,serif" font-size="14.00" fill="#000000">schedule</text>
<polyline fill="none" stroke="#000000" points="200.5,-476.5 361.5,-476.5 "/>
<text text-anchor="start" x="208.5" y="-461.3" font-family="Times,serif" font-size="14.00" fill="#000000">first_access()</text>
<text text-anchor="start" x="208.5" y="-446.3" font-family="Times,serif" font-size="14.00" fill="#000000">gen()</text>
<text text-anchor="start" x="208.5" y="-431.3" font-family="Times,serif" font-size="14.00" fill="#000000">gen_code()</text>
<text text-anchor="start" x="208.5" y="-416.3" font-family="Times,serif" font-size="14.00" fill="#000000">unique_declarations()</text>
<text text-anchor="start" x="208.5" y="-401.3" font-family="Times,serif" font-size="14.00" fill="#000000">unique_declns_by_intent()</text>
</g>
<!-- 18&#45;&gt;43 -->
<g id="edge1" class="edge">
<title>18&#45;&gt;43</title>
<path fill="none" stroke="#000000" d="M279.2853,-341.6811C279.4463,-355.4152 279.6106,-369.4366 279.7706,-383.0952"/>
<polygon fill="none" stroke="#000000" points="276.2751,-383.5002 279.8921,-393.4585 283.2746,-383.4181 276.2751,-383.5002"/>
</g>
<!-- 22 -->
<g id="node2" class="node">
<title>22</title>
<polygon fill="none" stroke="#000000" points="292.5,-.5 292.5,-70.5 419.5,-70.5 419.5,-.5 292.5,-.5"/>
<text text-anchor="middle" x="356" y="-55.3" font-family="Times,serif" font-size="14.00" fill="#000000">DynInvokeSchedule</text>
<polyline fill="none" stroke="#000000" points="292.5,-47.5 419.5,-47.5 "/>
<polyline fill="none" stroke="#000000" points="292.5,-23.5 419.5,-23.5 "/>
<text text-anchor="start" x="300.5" y="-8.3" font-family="Times,serif" font-size="14.00" fill="#000000">view()</text>
</g>
<!-- 22&#45;&gt;18 -->
<g id="edge8" class="edge">
<title>22&#45;&gt;18</title>
<path fill="none" stroke="#000000" d="M342.0552,-70.6303C337.3761,-82.418 331.8625,-96.3078 326.0662,-110.9103"/>
<polygon fill="#000000" stroke="#000000" points="326.015,-111.0393 327.5191,-118.0918 321.5876,-122.1927 320.0835,-115.1402 326.015,-111.0393"/>
<text text-anchor="middle" x="360.5" y="-92.8" font-family="Times,serif" font-size="14.00" fill="#00ff00">_schedule</text>
</g>
<!-- 44 -->
<g id="node6" class="node">
<title>44</title>
<polygon fill="none" stroke="#000000" points="383,-175 383,-289 487,-289 487,-175 383,-175"/>
<text text-anchor="middle" x="435" y="-273.8" font-family="Times,serif" font-size="14.00" fill="#000000">InvokeSchedule</text>
<polyline fill="none" stroke="#000000" points="383,-266 487,-266 "/>
<text text-anchor="start" x="391" y="-250.8" font-family="Times,serif" font-size="14.00" fill="#000000">coloured_text</text>
<text text-anchor="start" x="391" y="-235.8" font-family="Times,serif" font-size="14.00" fill="#000000">invoke</text>
<text text-anchor="start" x="391" y="-220.8" font-family="Times,serif" font-size="14.00" fill="#000000">opencl</text>
<polyline fill="none" stroke="#000000" points="383,-213 487,-213 "/>
<text text-anchor="start" x="391" y="-197.8" font-family="Times,serif" font-size="14.00" fill="#000000">gen_code()</text>
<text text-anchor="start" x="391" y="-182.8" font-family="Times,serif" font-size="14.00" fill="#000000">view()</text>
</g>
<!-- 22&#45;&gt;44 -->
<g id="edge2" class="edge">
<title>22&#45;&gt;44</title>
<path fill="none" stroke="#000000" d="M381.7553,-70.5911C385.5039,-76.5594 389.0776,-82.8278 392,-89 403.3105,-112.8885 412.4322,-140.4304 419.3146,-164.9267"/>
<polygon fill="none" stroke="#000000" points="416.0174,-166.1386 422.0316,-174.861 422.7694,-164.2918 416.0174,-166.1386"/>
</g>
<!-- 33 -->
<g id="node4" class="node">
<title>33</title>
<polygon fill="none" stroke="#000000" points="0,-867 0,-951 86,-951 86,-867 0,-867"/>
<text text-anchor="middle" x="43" y="-935.8" font-family="Times,serif" font-size="14.00" fill="#000000">DynamoPSy</text>
<polyline fill="none" stroke="#000000" points="0,-928 86,-928 "/>
<text text-anchor="start" x="8" y="-912.8" font-family="Times,serif" font-size="14.00" fill="#000000">gen</text>
<text text-anchor="start" x="8" y="-897.8" font-family="Times,serif" font-size="14.00" fill="#000000">name</text>
<polyline fill="none" stroke="#000000" points="0,-890 86,-890 "/>
<text text-anchor="middle" x="43" y="-874.8" font-family="Times,serif" font-size="14.00" fill="#000000"> </text>
</g>
<!-- 32&#45;&gt;33 -->
<g id="edge9" class="edge">
<title>32&#45;&gt;33</title>
<path fill="none" stroke="#000000" d="M113.2491,-523.2125C104.0184,-545.1787 92.86,-574.2636 86,-601 63.6234,-688.2108 52.1531,-792.4971 46.8753,-854.6058"/>
<polygon fill="#000000" stroke="#000000" points="46.8542,-854.8628 50.3492,-861.1704 45.8711,-866.8225 42.3761,-860.5149 46.8542,-854.8628"/>
<text text-anchor="middle" x="110.5" y="-604.8" font-family="Times,serif" font-size="14.00" fill="#00ff00">_invokes</text>
</g>
<!-- 45 -->
<g id="node7" class="node">
<title>45</title>
<polygon fill="#faebd7" stroke="#000000" points="104,-844.5 104,-973.5 220,-973.5 220,-844.5 104,-844.5"/>
<text text-anchor="middle" x="162" y="-958.3" font-family="Times,serif" font-size="14.00" fill="#000000">Invokes</text>
<polyline fill="none" stroke="#000000" points="104,-950.5 220,-950.5 "/>
<text text-anchor="start" x="112" y="-935.3" font-family="Times,serif" font-size="14.00" fill="#000000">invoke_list : list</text>
<text text-anchor="start" x="112" y="-920.3" font-family="Times,serif" font-size="14.00" fill="#000000">invoke_map : dict</text>
<text text-anchor="start" x="112" y="-905.3" font-family="Times,serif" font-size="14.00" fill="#000000">names</text>
<polyline fill="none" stroke="#000000" points="104,-897.5 220,-897.5 "/>
<text text-anchor="start" x="112" y="-882.3" font-family="Times,serif" font-size="14.00" fill="#000000">gen_code()</text>
<text text-anchor="start" x="112" y="-867.3" font-family="Times,serif" font-size="14.00" fill="#000000">gen_ocl_init()</text>
<text text-anchor="start" x="112" y="-852.3" font-family="Times,serif" font-size="14.00" fill="#000000">get()</text>
</g>
<!-- 32&#45;&gt;45 -->
<g id="edge3" class="edge">
<title>32&#45;&gt;45</title>
<path fill="none" stroke="#000000" d="M131.7568,-523.1701C137.1021,-591.3628 148.9793,-742.8874 156.1561,-834.446"/>
<polygon fill="none" stroke="#000000" points="152.672,-834.7867 156.9428,-844.4825 159.6506,-834.2396 152.672,-834.7867"/>
</g>
<!-- 58 -->
<g id="node9" class="node">
<title>58</title>
<polygon fill="#faebd7" stroke="#000000" points="13.5,-1221.5 13.5,-1320.5 72.5,-1320.5 72.5,-1221.5 13.5,-1221.5"/>
<text text-anchor="middle" x="43" y="-1305.3" font-family="Times,serif" font-size="14.00" fill="#000000">PSy</text>
<polyline fill="none" stroke="#000000" points="13.5,-1297.5 72.5,-1297.5 "/>
<text text-anchor="start" x="21.5" y="-1282.3" font-family="Times,serif" font-size="14.00" fill="#000000">gen</text>
<text text-anchor="start" x="21.5" y="-1267.3" font-family="Times,serif" font-size="14.00" fill="#000000">invokes</text>
<text text-anchor="start" x="21.5" y="-1252.3" font-family="Times,serif" font-size="14.00" fill="#000000">name</text>
<polyline fill="none" stroke="#000000" points="13.5,-1244.5 72.5,-1244.5 "/>
<text text-anchor="start" x="21.5" y="-1229.3" font-family="Times,serif" font-size="14.00" fill="#000000">inline()</text>
</g>
<!-- 33&#45;&gt;58 -->
<g id="edge4" class="edge">
<title>33&#45;&gt;58</title>
<path fill="none" stroke="#000000" d="M43,-951.2345C43,-1015.4499 43,-1137.9031 43,-1211.2281"/>
<polygon fill="none" stroke="#000000" points="39.5001,-1211.2373 43,-1221.2374 46.5001,-1211.2374 39.5001,-1211.2373"/>
</g>
<!-- 61 -->
<g id="node10" class="node">
<title>61</title>
<polygon fill="#faebd7" stroke="#000000" points="381.5,-431 381.5,-545 488.5,-545 488.5,-431 381.5,-431"/>
<text text-anchor="middle" x="435" y="-529.8" font-family="Times,serif" font-size="14.00" fill="#000000">Schedule</text>
<polyline fill="none" stroke="#000000" points="381.5,-522 488.5,-522 "/>
<text text-anchor="start" x="389.5" y="-506.8" font-family="Times,serif" font-size="14.00" fill="#000000">coloured_text</text>
<text text-anchor="start" x="389.5" y="-491.8" font-family="Times,serif" font-size="14.00" fill="#000000">dag_name</text>
<polyline fill="none" stroke="#000000" points="381.5,-484 488.5,-484 "/>
<text text-anchor="start" x="389.5" y="-468.8" font-family="Times,serif" font-size="14.00" fill="#000000">tkinter_delete()</text>
<text text-anchor="start" x="389.5" y="-453.8" font-family="Times,serif" font-size="14.00" fill="#000000">tkinter_display()</text>
<text text-anchor="start" x="389.5" y="-438.8" font-family="Times,serif" font-size="14.00" fill="#000000">view()</text>
</g>
<!-- 44&#45;&gt;61 -->
<g id="edge5" class="edge">
<title>44&#45;&gt;61</title>
<path fill="none" stroke="#000000" d="M435,-289.1328C435,-327.9855 435,-379.5586 435,-420.4484"/>
<polygon fill="none" stroke="#000000" points="431.5001,-420.5996 435,-430.5997 438.5001,-420.5997 431.5001,-420.5996"/>
</g>
<!-- 56 -->
<g id="node8" class="node">
<title>56</title>
<polygon fill="none" stroke="#000000" points="360.5,-634.5 360.5,-1183.5 509.5,-1183.5 509.5,-634.5 360.5,-634.5"/>
<text text-anchor="middle" x="435" y="-1168.3" font-family="Times,serif" font-size="14.00" fill="#000000">Node</text>
<polyline fill="none" stroke="#000000" points="360.5,-1160.5 509.5,-1160.5 "/>
<text text-anchor="start" x="368.5" y="-1145.3" font-family="Times,serif" font-size="14.00" fill="#000000">abs_position</text>
<text text-anchor="start" x="368.5" y="-1130.3" font-family="Times,serif" font-size="14.00" fill="#000000">args</text>
<text text-anchor="start" x="368.5" y="-1115.3" font-family="Times,serif" font-size="14.00" fill="#000000">children</text>
<text text-anchor="start" x="368.5" y="-1100.3" font-family="Times,serif" font-size="14.00" fill="#000000">dag_name</text>
<text text-anchor="start" x="368.5" y="-1085.3" font-family="Times,serif" font-size="14.00" fill="#000000">depth</text>
<text text-anchor="start" x="368.5" y="-1070.3" font-family="Times,serif" font-size="14.00" fill="#000000">following_calls</text>
<text text-anchor="start" x="368.5" y="-1055.3" font-family="Times,serif" font-size="14.00" fill="#000000">parent</text>
<text text-anchor="start" x="368.5" y="-1040.3" font-family="Times,serif" font-size="14.00" fill="#000000">position</text>
<text text-anchor="start" x="368.5" y="-1025.3" font-family="Times,serif" font-size="14.00" fill="#000000">preceding_calls</text>
<text text-anchor="start" x="368.5" y="-1010.3" font-family="Times,serif" font-size="14.00" fill="#000000">root</text>
<polyline fill="none" stroke="#000000" points="360.5,-1002.5 509.5,-1002.5 "/>
<text text-anchor="start" x="368.5" y="-987.3" font-family="Times,serif" font-size="14.00" fill="#000000">addchild()</text>
<text text-anchor="start" x="368.5" y="-972.3" font-family="Times,serif" font-size="14.00" fill="#000000">ancestor()</text>
<text text-anchor="start" x="368.5" y="-957.3" font-family="Times,serif" font-size="14.00" fill="#000000">backward_dependence()</text>
<text text-anchor="start" x="368.5" y="-942.3" font-family="Times,serif" font-size="14.00" fill="#000000">calls()</text>
<text text-anchor="start" x="368.5" y="-927.3" font-family="Times,serif" font-size="14.00" fill="#000000">dag()</text>
<text text-anchor="start" x="368.5" y="-912.3" font-family="Times,serif" font-size="14.00" fill="#000000">dag_gen()</text>
<text text-anchor="start" x="368.5" y="-897.3" font-family="Times,serif" font-size="14.00" fill="#000000">following()</text>
<text text-anchor="start" x="368.5" y="-882.3" font-family="Times,serif" font-size="14.00" fill="#000000">forward_dependence()</text>
<text text-anchor="start" x="368.5" y="-867.3" font-family="Times,serif" font-size="14.00" fill="#000000">gen_c_code()</text>
<text text-anchor="start" x="368.5" y="-852.3" font-family="Times,serif" font-size="14.00" fill="#000000">gen_code()</text>
<text text-anchor="start" x="368.5" y="-837.3" font-family="Times,serif" font-size="14.00" fill="#000000">indent()</text>
<text text-anchor="start" x="368.5" y="-822.3" font-family="Times,serif" font-size="14.00" fill="#000000">is_openmp_parallel()</text>
<text text-anchor="start" x="368.5" y="-807.3" font-family="Times,serif" font-size="14.00" fill="#000000">is_valid_location()</text>
<text text-anchor="start" x="368.5" y="-792.3" font-family="Times,serif" font-size="14.00" fill="#000000">kern_calls()</text>
<text text-anchor="start" x="368.5" y="-777.3" font-family="Times,serif" font-size="14.00" fill="#000000">list()</text>
<text text-anchor="start" x="368.5" y="-762.3" font-family="Times,serif" font-size="14.00" fill="#000000">list_to_string()</text>
<text text-anchor="start" x="368.5" y="-747.3" font-family="Times,serif" font-size="14.00" fill="#000000">loops()</text>
<text text-anchor="start" x="368.5" y="-732.3" font-family="Times,serif" font-size="14.00" fill="#000000">preceding()</text>
<text text-anchor="start" x="368.5" y="-717.3" font-family="Times,serif" font-size="14.00" fill="#000000">reductions()</text>
<text text-anchor="start" x="368.5" y="-702.3" font-family="Times,serif" font-size="14.00" fill="#000000">sameParent()</text>
<text text-anchor="start" x="368.5" y="-687.3" font-family="Times,serif" font-size="14.00" fill="#000000">sameRoot()</text>
<text text-anchor="start" x="368.5" y="-672.3" font-family="Times,serif" font-size="14.00" fill="#000000">update()</text>
<text text-anchor="start" x="368.5" y="-657.3" font-family="Times,serif" font-size="14.00" fill="#000000">view()</text>
<text text-anchor="start" x="368.5" y="-642.3" font-family="Times,serif" font-size="14.00" fill="#000000">walk()</text>
</g>
<!-- 61&#45;&gt;56 -->
<g id="edge6" class="edge">
<title>61&#45;&gt;56</title>
<path fill="none" stroke="#000000" d="M435,-545.2161C435,-567.4349 435,-594.6301 435,-624.0527"/>
<polygon fill="none" stroke="#000000" points="431.5001,-624.1122 435,-634.1123 438.5001,-624.1123 431.5001,-624.1122"/>
</g>
</g>
</svg>
