<?xml version="1.0" encoding="UTF-8" standalone="no"?><!DOCTYPE svg PUBLIC "-//W3C//DTD SVG 1.1//EN" "http://www.w3.org/Graphics/SVG/1.1/DTD/svg11.dtd"><svg width="100%" height="100%" viewBox="0 0 360 560" version="1.1" xmlns="http://www.w3.org/2000/svg" xmlns:xlink="http://www.w3.org/1999/xlink" xml:space="preserve" xmlns:serif="http://www.serif.com/" style="fill-rule:evenodd;clip-rule:evenodd;stroke-linecap:round;stroke-linejoin:round;stroke-miterlimit:1.5;"><g id="Mesh"><g id="Cube"><rect x="10" y="390" width="140" height="160" style="fill:none;stroke:#000;stroke-width:1px;"/><rect x="70" y="330" width="140" height="160" style="fill:none;stroke:#000;stroke-width:1px;"/><path d="M150,550l60,-60" style="fill:none;stroke:#000;stroke-width:1px;"/><path d="M150,390l60,-60" style="fill:none;stroke:#000;stroke-width:1px;"/><path d="M10,550l60,-60" style="fill:none;stroke:#000;stroke-width:1px;"/><path d="M10,390l60,-60" style="fill:none;stroke:#000;stroke-width:1px;"/><circle cx="110.984" cy="450" r="10.984" style="fill:#e1144a;"/><circle cx="10" cy="550" r="10" style="fill:#2514e1;"/><ellipse cx="149.161" cy="550" rx="9.161" ry="10" style="fill:#2514e1;"/><circle cx="70" cy="490" r="10" style="fill:#2514e1;"/><circle cx="210" cy="490" r="10" style="fill:#2514e1;"/><circle cx="10" cy="390" r="10" style="fill:#2514e1;"/><ellipse cx="149.161" cy="390" rx="9.161" ry="10" style="fill:#2514e1;"/><circle cx="70" cy="330" r="10" style="fill:#2514e1;"/><circle cx="210" cy="330" r="10" style="fill:#2514e1;"/></g><g id="Cube1" serif:id="Cube"><rect x="10" y="230" width="140" height="160" style="fill:none;stroke:#000;stroke-width:1px;"/><rect x="70" y="170" width="140" height="160" style="fill:none;stroke:#000;stroke-width:1px;"/><path d="M150,390l60,-60" style="fill:none;stroke:#000;stroke-width:1px;"/><path d="M150,230l60,-60" style="fill:none;stroke:#000;stroke-width:1px;"/><path d="M10,390l60,-60" style="fill:none;stroke:#000;stroke-width:1px;"/><path d="M10,230l60,-60" style="fill:none;stroke:#000;stroke-width:1px;"/><circle cx="110.984" cy="290" r="10.984" style="fill:#e1144a;"/><circle cx="10" cy="390" r="10" style="fill:#2514e1;"/><ellipse cx="149.161" cy="390" rx="9.161" ry="10" style="fill:#2514e1;"/><circle cx="70" cy="330" r="10" style="fill:#2514e1;"/><circle cx="210" cy="330" r="10" style="fill:#2514e1;"/><circle cx="10" cy="230" r="10" style="fill:#2514e1;"/><ellipse cx="149.161" cy="230" rx="9.161" ry="10" style="fill:#2514e1;"/><circle cx="70" cy="170" r="10" style="fill:#2514e1;"/><circle cx="210" cy="170" r="10" style="fill:#2514e1;"/></g><g id="Cube2" serif:id="Cube"><rect x="10" y="70" width="140" height="160" style="fill:none;stroke:#000;stroke-width:1px;"/><rect x="70" y="10" width="140" height="160" style="fill:none;stroke:#000;stroke-width:1px;"/><path d="M150,230l60,-60" style="fill:none;stroke:#000;stroke-width:1px;"/><path d="M150,70l60,-60" style="fill:none;stroke:#000;stroke-width:1px;"/><path d="M10,230l60,-60" style="fill:none;stroke:#000;stroke-width:1px;"/><path d="M10,70l60,-60" style="fill:none;stroke:#000;stroke-width:1px;"/><circle cx="110.984" cy="130" r="10.984" style="fill:#e1144a;"/><circle cx="10" cy="230" r="10" style="fill:#2514e1;"/><ellipse cx="149.161" cy="230" rx="9.161" ry="10" style="fill:#2514e1;"/><circle cx="70" cy="170" r="10" style="fill:#2514e1;"/><circle cx="210" cy="170" r="10" style="fill:#2514e1;"/><circle cx="10" cy="70" r="10" style="fill:#2514e1;"/><ellipse cx="149.161" cy="70" rx="9.161" ry="10" style="fill:#2514e1;"/><circle cx="70" cy="10" r="10" style="fill:#2514e1;"/><circle cx="210" cy="10" r="10" style="fill:#2514e1;"/></g><g id="Cube3" serif:id="Cube"><rect x="150" y="390" width="140" height="160" style="fill:none;stroke:#000;stroke-width:1px;"/><rect x="210" y="330" width="140" height="160" style="fill:none;stroke:#000;stroke-width:1px;"/><path d="M290,550l60,-60" style="fill:none;stroke:#000;stroke-width:1px;"/><path d="M290,390l60,-60" style="fill:none;stroke:#000;stroke-width:1px;"/><path d="M150,550l60,-60" style="fill:none;stroke:#000;stroke-width:1px;"/><path d="M150,390l60,-60" style="fill:none;stroke:#000;stroke-width:1px;"/><circle cx="250.984" cy="450" r="10.984" style="fill:#e1144a;"/><circle cx="150" cy="550" r="10" style="fill:#2514e1;"/><ellipse cx="289.161" cy="550" rx="9.161" ry="10" style="fill:#2514e1;"/><circle cx="210" cy="490" r="10" style="fill:#2514e1;"/><circle cx="350" cy="490" r="10" style="fill:#2514e1;"/><circle cx="150" cy="390" r="10" style="fill:#2514e1;"/><ellipse cx="289.161" cy="390" rx="9.161" ry="10" style="fill:#2514e1;"/><circle cx="210" cy="330" r="10" style="fill:#2514e1;"/><circle cx="350" cy="330" r="10" style="fill:#2514e1;"/></g><g id="Cube4" serif:id="Cube"><rect x="150" y="230" width="140" height="160" style="fill:none;stroke:#000;stroke-width:1px;"/><rect x="210" y="170" width="140" height="160" style="fill:none;stroke:#000;stroke-width:1px;"/><path d="M290,390l60,-60" style="fill:none;stroke:#000;stroke-width:1px;"/><path d="M290,230l60,-60" style="fill:none;stroke:#000;stroke-width:1px;"/><path d="M150,390l60,-60" style="fill:none;stroke:#000;stroke-width:1px;"/><path d="M150,230l60,-60" style="fill:none;stroke:#000;stroke-width:1px;"/><circle cx="250.984" cy="290" r="10.984" style="fill:#e1144a;"/><circle cx="150" cy="390" r="10" style="fill:#2514e1;"/><ellipse cx="289.161" cy="390" rx="9.161" ry="10" style="fill:#2514e1;"/><circle cx="210" cy="330" r="10" style="fill:#2514e1;"/><circle cx="350" cy="330" r="10" style="fill:#2514e1;"/><circle cx="150" cy="230" r="10" style="fill:#2514e1;"/><ellipse cx="289.161" cy="230" rx="9.161" ry="10" style="fill:#2514e1;"/><circle cx="210" cy="170" r="10" style="fill:#2514e1;"/><circle cx="350" cy="170" r="10" style="fill:#2514e1;"/></g><g id="Cube5" serif:id="Cube"><rect x="150" y="70" width="140" height="160" style="fill:none;stroke:#000;stroke-width:1px;"/><rect x="210" y="10" width="140" height="160" style="fill:none;stroke:#000;stroke-width:1px;"/><path d="M290,230l60,-60" style="fill:none;stroke:#000;stroke-width:1px;"/><path d="M290,70l60,-60" style="fill:none;stroke:#000;stroke-width:1px;"/><path d="M150,230l60,-60" style="fill:none;stroke:#000;stroke-width:1px;"/><path d="M150,70l60,-60" style="fill:none;stroke:#000;stroke-width:1px;"/><circle cx="250.984" cy="130" r="10.984" style="fill:#e1144a;"/><circle cx="150" cy="230" r="10" style="fill:#2514e1;"/><ellipse cx="289.161" cy="230" rx="9.161" ry="10" style="fill:#2514e1;"/><circle cx="210" cy="170" r="10" style="fill:#2514e1;"/><circle cx="350" cy="170" r="10" style="fill:#2514e1;"/><circle cx="150" cy="70" r="10" style="fill:#2514e1;"/><ellipse cx="289.161" cy="70" rx="9.161" ry="10" style="fill:#2514e1;"/><circle cx="210" cy="10" r="10" style="fill:#2514e1;"/><circle cx="350" cy="10" r="10" style="fill:#2514e1;"/></g></g></svg>